<svg id="Capa_1" data-name="Capa 1" xmlns="http://www.w3.org/2000/svg" xmlns:xlink="http://www.w3.org/1999/xlink"
	viewBox="0 0 634 634">
	<defs>
		<style>
			.cls-1 {
				stroke: #00e5e5;
				stroke-width: 2.19px;
				fill: url(#Degradado_sin_nombre_38);
			}

			.cls-1,
			.cls-7,
			.cls-8 {
				stroke-miterlimit: 10;
			}

			.cls-2 {
				fill: url(#linear-gradient);
			}

			.cls-3 {
				fill: #0cc1b3;
			}

			.cls-4 {
				fill: url(#Degradado_sin_nombre_38-2);
			}

			.cls-5 {
				fill: url(#Degradado_sin_nombre_38-3);
			}

			.cls-6 {
				fill: url(#Degradado_sin_nombre_38-4);
			}

			.cls-7 {
				fill: #efefef;
				stroke-linecap: round;
				stroke-width: 1.77px;
			}

			.cls-7,
			.cls-8 {
				stroke: #03fff8;
			}

			.cls-8 {
				fill: #03fff8;
				stroke-width: 6.18px;
			}
		</style>
		<linearGradient id="Degradado_sin_nombre_38" x1="28.83" y1="326.73" x2="616.24" y2="326.73"
			gradientUnits="userSpaceOnUse">
			<stop offset="0" stop-color="#252947" />
			<stop offset="1" stop-color="#090b14" />
		</linearGradient>
		<linearGradient id="linear-gradient" x1="361.15" y1="295.98" x2="291.3" y2="-74.18"
			gradientUnits="userSpaceOnUse">
			<stop offset="0.04" stop-color="#252947" />
			<stop offset="0.32" stop-color="#00aee5" />
			<stop offset="0.56" stop-color="#00e5e5" />
			<stop offset="0.87" stop-color="#00e5b5" />
			<stop offset="1" stop-color="#00ae92" />
		</linearGradient>
		<linearGradient id="Degradado_sin_nombre_38-2" x1="250.11" y1="131.63" x2="403.05" y2="131.63"
			xlink:href="#Degradado_sin_nombre_38" />
		<linearGradient id="Degradado_sin_nombre_38-3" x1="300.58" y1="131.62" x2="352.54" y2="131.62"
			xlink:href="#Degradado_sin_nombre_38" />
		<linearGradient id="Degradado_sin_nombre_38-4" x1="271.94" y1="122.16" x2="294.22" y2="122.16"
			xlink:href="#Degradado_sin_nombre_38" />
	</defs>
	<title>Boton1</title>
	<rect class="cls-1" x="28.83" y="33.02" width="587.42" height="587.42" rx="58.64" />
	<path class="cls-2"
		d="M207.09,11.67h239a0,0,0,0,1,0,0V210.06a40.59,40.59,0,0,1-40.59,40.59H247.68a40.59,40.59,0,0,1-40.59-40.59V11.67A0,0,0,0,1,207.09,11.67Z" />
	<polyline class="cls-3" points="446.07 11.53 481.32 31.43 446.07 31.43 446.07 11.07" />
	<polyline class="cls-3" points="206.68 11.53 171.43 31.43 206.68 31.43 206.68 11.07" />
	<path class="cls-4"
		d="M388.48,176.58a.74.74,0,0,0-.38.51,36.43,36.43,0,0,1-2.57,3.26c-.24.27-.64.45-.51.92-.28.21-.65.29-.81.65l-.2.24-3.14,3.37c-2,1.8-3.92,3.68-6,5.38a86.3,86.3,0,0,1-9.75,6.8l-1.08.63a1.27,1.27,0,0,0-.7.4,3.21,3.21,0,0,0-1.2.66,104.48,104.48,0,0,1-9.72,4.22,76.63,76.63,0,0,1-93-35.46c-1.36-2.48-2.53-5-3.68-7.62-.81-2.39-1.74-4.73-2.45-7.15a77.15,77.15,0,0,1-2.92-15.94,76.2,76.2,0,0,1,2.72-26.91,81.15,81.15,0,0,1,6.2-15.25c1.2-2.3,2.65-4.44,4-6.63a67,67,0,0,1,5.79-7.41,71.32,71.32,0,0,1,12.54-11.44,76.83,76.83,0,0,1,13.94-8.07,74.54,74.54,0,0,1,19.27-5.68,76.28,76.28,0,0,1,56.31,13.46A74.6,74.6,0,0,1,385.88,83.4a76.39,76.39,0,0,1,13.56,71.4,69.44,69.44,0,0,1-8,17.22c-.55.83-1,1.74-1.48,2.61-.38.16-.45.52-.58.85Zm-20.13-2.75,0,0a.6.6,0,0,0,.48-.41,5.57,5.57,0,0,0,1-1,25.64,25.64,0,0,0,4.52-5.64,9,9,0,0,0,2.18-2.91,22.25,22.25,0,0,0,2-3.3,48.25,48.25,0,0,0,4.4-9.78,58.67,58.67,0,0,0,2.39-28.94,56.93,56.93,0,0,0-4.06-13.7,61.87,61.87,0,0,0-5.25-9.76,59.39,59.39,0,0,0-85.71-14.09,55.06,55.06,0,0,0-9.16,8.7,59.66,59.66,0,0,0-12,54.61,57.81,57.81,0,0,0,9.29,19.05,41.66,41.66,0,0,0,5.06,5.95l.39.41.1.13c.43.46.75,1,1.41,1.23.09.24.19.46.5.39a2.1,2.1,0,0,0,1.33,1.27.42.42,0,0,0,.16.38,22.7,22.7,0,0,0,3.09,2.44h0a3.39,3.39,0,0,0,1.2.92h0a.41.41,0,0,0,.32.23l.05-.06-.05.06a5.17,5.17,0,0,0,1.33.94l.37.21a5.49,5.49,0,0,0,1.74,1.11,43.06,43.06,0,0,0,7.22,3.84,59.35,59.35,0,0,0,61.79-8.68,15.13,15.13,0,0,0,3.25-3.09h0l.23-.12.17-.17A.26.26,0,0,0,368.35,173.83ZM272.91,87a2.21,2.21,0,0,0,1.84-.87,65.55,65.55,0,0,1,15.67-13.76,67.79,67.79,0,0,1,18.7-8.23c1.63-.44,3.3-.74,5-1.06A1.92,1.92,0,0,0,315.72,61c-.05-.84-1-1.91-1.86-1.8-1,.14-2.06.14-3.06.37a69.77,69.77,0,0,0-14.49,4.93A71.2,71.2,0,0,0,276.5,78.27c-1.74,1.71-3.37,3.51-4.93,5.38a1.92,1.92,0,0,0-.32,2.17A1.85,1.85,0,0,0,272.91,87Z" />
	<path class="cls-5"
		d="M344.43,160.56l-.49.28a29.43,29.43,0,0,1-13.37,3.42c-.6,0-.6.33-.47.76q0,4.36,0,8.73c0,.61-.33.71-.85.7-1.91,0-3.81,0-5.72,0-.68,0-.85-.23-.85-.88,0-2.82,0-5.65,0-8.48,0-.65-.18-.86-.83-.88a25.78,25.78,0,0,1-14.64-4.72c-3.84-2.8-6.58-6.46-6.56-11.56,0-.51,0-1,0-1.52,0-1.41,0-1.41,1.35-1.56,2.33-.26,4.67-.5,7-.79.57-.07.76.1.74.64s0,1.2,0,1.79c-.44,5.25,2.77,8.27,6.93,10a17.9,17.9,0,0,0,5,1.25c.82.09,1-.11,1-.91,0-4.73,0-9.46,0-14.19,0-3.09,0-6.18,0-9.28,0-.64-.18-.89-.83-1.08-4-1.15-8-2.14-11.76-4a18.12,18.12,0,0,1-7.73-6.77,12.23,12.23,0,0,1-1.53-4.43,14.55,14.55,0,0,1,5.51-14.48,28,28,0,0,1,8-4.22,27,27,0,0,1,7.38-1.23c.76-.06.94-.35.93-1,0-2.17,0-4.34,0-6.51,0-.61.14-.84.79-.83,1.93,0,3.86,0,5.8,0,.63,0,.81.21.81.83,0,2.17,0,4.34,0,6.51,0,.71.22,1,1,1a26.86,26.86,0,0,1,13.31,4.12,17.7,17.7,0,0,1,6.34,6.74,13.91,13.91,0,0,1,1.27,7c0,.43-.09.61-.67.62a35.62,35.62,0,0,0-3.71.39l-4.13.44c-.45,0-.57-.2-.57-.58,0-.75,0-1.49,0-2.23a8.51,8.51,0,0,0-3.52-6.73,16.31,16.31,0,0,0-8.07-3.23c-1.14-.16-1.19-.12-1.19,1,0,7.35,0,14.69,0,22,0,.7.18,1.06.91,1.25,2.23.61,4.47,1.21,6.65,2,4.05,1.45,8,3.15,11,6.33a13.26,13.26,0,0,1,3.9,9c.14,3.39-.09,6.66-2.08,9.58a18.35,18.35,0,0,1-5.06,5C345,160.1,344.74,160.34,344.43,160.56ZM330,146.18h0c0,3.57,0,7.13,0,10.7,0,.79.25,1,1,1a18.71,18.71,0,0,0,4.53-.93c4.42-1.62,8.42-4.73,7.9-10.95a9.34,9.34,0,0,0-3.19-6.62c-2.69-2.36-6-3.41-9.31-4.52-.8-.26-1,0-1,.74C330,139.1,330,142.64,330,146.18Zm-7.37-31.59h0c0-3.39,0-6.78,0-10.17,0-.7-.23-.86-.88-.79a17.21,17.21,0,0,0-8.13,2.94,8.9,8.9,0,0,0-3.14,3.56c-1.56,3.41-1.2,8.3,2.6,11.06a32.44,32.44,0,0,0,8.58,4.06c.76.27,1,.14,1-.67C322.64,121.25,322.66,117.92,322.66,114.59Z" />
	<path class="cls-6"
		d="M272,131.75a51.88,51.88,0,0,1,.65-10A47.42,47.42,0,0,1,282,99.92a32.92,32.92,0,0,1,7.48-7.28,3,3,0,0,1,4.26.72,2.92,2.92,0,0,1-.87,4.13,33.2,33.2,0,0,0-8.68,9.79,44.55,44.55,0,0,0-6,18.6,67.42,67.42,0,0,0,1.71,22.2c.44,1.89-.05,3.2-1.46,3.86a3,3,0,0,1-4.29-2A75.88,75.88,0,0,1,272,136.12C271.91,134.67,272,133.21,272,131.75Z" />
	<rect class="cls-7" x="-259.1" y="-355.29" width="273.7" height="356.35" rx="23.64" />
	<path class="cls-8"
		d="M283.94,284.81a7.18,7.18,0,0,1,7,7V299c14.41,1.53,25.76,6.33,36.89,14,2.4,1.75,4.36,3.93,4.36,7.2,0,4.58-3.71,7.86-8.29,7.86a7.31,7.31,0,0,1-4.8-1.53c-9.61-7-19-11.13-28.81-12.66v53.91c33.17,7.43,47.14,20.3,47.14,42.35,0,23.35-19.2,39.5-46.49,41.25v15.5a7,7,0,0,1-14,0V450.91c-17.9-1.52-33.18-8.29-47.36-19.42a8.15,8.15,0,0,1-3.71-7,8,8,0,0,1,8.07-7.85,8.1,8.1,0,0,1,5,1.74c11.57,9.82,23.58,16.15,38.64,17.9V381.5c-32.31-7.64-46.49-19.64-46.49-42.56,0-22.48,19-39.07,45.83-40.38V291.8A7.19,7.19,0,0,1,283.94,284.81Zm-6.33,79.89V313.19c-18.56.87-29.69,11.35-29.69,24.66C247.92,350.51,253.82,358.37,277.61,364.7Zm12.66,19.64v52.6c18.77-1.09,30.34-11.34,30.34-25.75C320.61,398.31,314.06,390.45,290.27,384.34Z" />
	<path class="cls-8"
		d="M391.1,319.41l-21.39,7a12,12,0,0,1-3.71.66,7.51,7.51,0,0,1-7.43-7.43c0-3.71,2.4-6.11,6.12-7.42l25.1-8.73c3.49-1.09,6.54-2,9.38-2h.44a8.38,8.38,0,0,1,8.51,8.51V448.4a8.57,8.57,0,0,1-8.51,8.73,8.71,8.71,0,0,1-8.51-8.73Z" />
</svg>
<svg id="Capa_1" data-name="Capa 1" xmlns="http://www.w3.org/2000/svg" xmlns:xlink="http://www.w3.org/1999/xlink"
	viewBox="0 0 634 634">
	<defs>
		<style>
			.cls-1 {
				stroke: #00e5e5;
				stroke-width: 2.19px;
				fill: url(#Degradado_sin_nombre_38);
			}

			.cls-1,
			.cls-7,
			.cls-8 {
				stroke-miterlimit: 10;
			}

			.cls-2 {
				fill: url(#linear-gradient);
			}

			.cls-3 {
				fill: #0cc1b3;
			}

			.cls-4 {
				fill: url(#Degradado_sin_nombre_38-2);
			}

			.cls-5 {
				fill: url(#Degradado_sin_nombre_38-3);
			}

			.cls-6 {
				fill: url(#Degradado_sin_nombre_38-4);
			}

			.cls-7 {
				fill: #efefef;
				stroke-linecap: round;
				stroke-width: 1.77px;
			}

			.cls-7,
			.cls-8 {
				stroke: #03fff8;
			}

			.cls-8 {
				fill: #03fff8;
				stroke-width: 6.18px;
			}
		</style>
		<linearGradient id="Degradado_sin_nombre_38" x1="28.83" y1="326.73" x2="616.24" y2="326.73"
			gradientUnits="userSpaceOnUse">
			<stop offset="0" stop-color="#252947" />
			<stop offset="1" stop-color="#090b14" />
		</linearGradient>
		<linearGradient id="linear-gradient" x1="361.15" y1="295.98" x2="291.3" y2="-74.18"
			gradientUnits="userSpaceOnUse">
			<stop offset="0.04" stop-color="#252947" />
			<stop offset="0.32" stop-color="#00aee5" />
			<stop offset="0.56" stop-color="#00e5e5" />
			<stop offset="0.87" stop-color="#00e5b5" />
			<stop offset="1" stop-color="#00ae92" />
		</linearGradient>
		<linearGradient id="Degradado_sin_nombre_38-2" x1="250.11" y1="131.63" x2="403.05" y2="131.63"
			xlink:href="#Degradado_sin_nombre_38" />
		<linearGradient id="Degradado_sin_nombre_38-3" x1="300.58" y1="131.62" x2="352.54" y2="131.62"
			xlink:href="#Degradado_sin_nombre_38" />
		<linearGradient id="Degradado_sin_nombre_38-4" x1="271.94" y1="122.16" x2="294.22" y2="122.16"
			xlink:href="#Degradado_sin_nombre_38" />
	</defs>
	<title>Boton1</title>
	<rect class="cls-1" x="28.83" y="33.02" width="587.42" height="587.42" rx="58.64" />
	<path class="cls-2"
		d="M207.09,11.67h239a0,0,0,0,1,0,0V210.06a40.59,40.59,0,0,1-40.59,40.59H247.68a40.59,40.59,0,0,1-40.59-40.59V11.67A0,0,0,0,1,207.09,11.67Z" />
	<polyline class="cls-3" points="446.07 11.53 481.32 31.43 446.07 31.43 446.07 11.07" />
	<polyline class="cls-3" points="206.68 11.53 171.43 31.43 206.68 31.43 206.68 11.07" />
	<path class="cls-4"
		d="M388.48,176.58a.74.74,0,0,0-.38.51,36.43,36.43,0,0,1-2.57,3.26c-.24.27-.64.45-.51.92-.28.21-.65.29-.81.65l-.2.24-3.14,3.37c-2,1.8-3.92,3.68-6,5.38a86.3,86.3,0,0,1-9.75,6.8l-1.08.63a1.27,1.27,0,0,0-.7.4,3.21,3.21,0,0,0-1.2.66,104.48,104.48,0,0,1-9.72,4.22,76.63,76.63,0,0,1-93-35.46c-1.36-2.48-2.53-5-3.68-7.62-.81-2.39-1.74-4.73-2.45-7.15a77.15,77.15,0,0,1-2.92-15.94,76.2,76.2,0,0,1,2.72-26.91,81.15,81.15,0,0,1,6.2-15.25c1.2-2.3,2.65-4.44,4-6.63a67,67,0,0,1,5.79-7.41,71.32,71.32,0,0,1,12.54-11.44,76.83,76.83,0,0,1,13.94-8.07,74.54,74.54,0,0,1,19.27-5.68,76.28,76.28,0,0,1,56.31,13.46A74.6,74.6,0,0,1,385.88,83.4a76.39,76.39,0,0,1,13.56,71.4,69.44,69.44,0,0,1-8,17.22c-.55.83-1,1.74-1.48,2.61-.38.16-.45.52-.58.85Zm-20.13-2.75,0,0a.6.6,0,0,0,.48-.41,5.57,5.57,0,0,0,1-1,25.64,25.64,0,0,0,4.52-5.64,9,9,0,0,0,2.18-2.91,22.25,22.25,0,0,0,2-3.3,48.25,48.25,0,0,0,4.4-9.78,58.67,58.67,0,0,0,2.39-28.94,56.93,56.93,0,0,0-4.06-13.7,61.87,61.87,0,0,0-5.25-9.76,59.39,59.39,0,0,0-85.71-14.09,55.06,55.06,0,0,0-9.16,8.7,59.66,59.66,0,0,0-12,54.61,57.81,57.81,0,0,0,9.29,19.05,41.66,41.66,0,0,0,5.06,5.95l.39.41.1.13c.43.46.75,1,1.41,1.23.09.24.19.46.5.39a2.1,2.1,0,0,0,1.33,1.27.42.42,0,0,0,.16.38,22.7,22.7,0,0,0,3.09,2.44h0a3.39,3.39,0,0,0,1.2.92h0a.41.41,0,0,0,.32.23l.05-.06-.05.06a5.17,5.17,0,0,0,1.33.94l.37.21a5.49,5.49,0,0,0,1.74,1.11,43.06,43.06,0,0,0,7.22,3.84,59.35,59.35,0,0,0,61.79-8.68,15.13,15.13,0,0,0,3.25-3.09h0l.23-.12.17-.17A.26.26,0,0,0,368.35,173.83ZM272.91,87a2.21,2.21,0,0,0,1.84-.87,65.55,65.55,0,0,1,15.67-13.76,67.79,67.79,0,0,1,18.7-8.23c1.63-.44,3.3-.74,5-1.06A1.92,1.92,0,0,0,315.72,61c-.05-.84-1-1.91-1.86-1.8-1,.14-2.06.14-3.06.37a69.77,69.77,0,0,0-14.49,4.93A71.2,71.2,0,0,0,276.5,78.27c-1.74,1.71-3.37,3.51-4.93,5.38a1.92,1.92,0,0,0-.32,2.17A1.85,1.85,0,0,0,272.91,87Z" />
	<path class="cls-5"
		d="M344.43,160.56l-.49.28a29.43,29.43,0,0,1-13.37,3.42c-.6,0-.6.33-.47.76q0,4.36,0,8.73c0,.61-.33.71-.85.7-1.91,0-3.81,0-5.72,0-.68,0-.85-.23-.85-.88,0-2.82,0-5.65,0-8.48,0-.65-.18-.86-.83-.88a25.78,25.78,0,0,1-14.64-4.72c-3.84-2.8-6.58-6.46-6.56-11.56,0-.51,0-1,0-1.52,0-1.41,0-1.41,1.35-1.56,2.33-.26,4.67-.5,7-.79.57-.07.76.1.74.64s0,1.2,0,1.79c-.44,5.25,2.77,8.27,6.93,10a17.9,17.9,0,0,0,5,1.25c.82.09,1-.11,1-.91,0-4.73,0-9.46,0-14.19,0-3.09,0-6.18,0-9.28,0-.64-.18-.89-.83-1.08-4-1.15-8-2.14-11.76-4a18.12,18.12,0,0,1-7.73-6.77,12.23,12.23,0,0,1-1.53-4.43,14.55,14.55,0,0,1,5.51-14.48,28,28,0,0,1,8-4.22,27,27,0,0,1,7.38-1.23c.76-.06.94-.35.93-1,0-2.17,0-4.34,0-6.51,0-.61.14-.84.79-.83,1.93,0,3.86,0,5.8,0,.63,0,.81.21.81.83,0,2.17,0,4.34,0,6.51,0,.71.22,1,1,1a26.86,26.86,0,0,1,13.31,4.12,17.7,17.7,0,0,1,6.34,6.74,13.91,13.91,0,0,1,1.27,7c0,.43-.09.61-.67.62a35.62,35.62,0,0,0-3.71.39l-4.13.44c-.45,0-.57-.2-.57-.58,0-.75,0-1.49,0-2.23a8.51,8.51,0,0,0-3.52-6.73,16.31,16.31,0,0,0-8.07-3.23c-1.14-.16-1.19-.12-1.19,1,0,7.35,0,14.69,0,22,0,.7.18,1.06.91,1.25,2.23.61,4.47,1.21,6.65,2,4.05,1.45,8,3.15,11,6.33a13.26,13.26,0,0,1,3.9,9c.14,3.39-.09,6.66-2.08,9.58a18.35,18.35,0,0,1-5.06,5C345,160.1,344.74,160.34,344.43,160.56ZM330,146.18h0c0,3.57,0,7.13,0,10.7,0,.79.25,1,1,1a18.71,18.71,0,0,0,4.53-.93c4.42-1.62,8.42-4.73,7.9-10.95a9.34,9.34,0,0,0-3.19-6.62c-2.69-2.36-6-3.41-9.31-4.52-.8-.26-1,0-1,.74C330,139.1,330,142.64,330,146.18Zm-7.37-31.59h0c0-3.39,0-6.78,0-10.17,0-.7-.23-.86-.88-.79a17.21,17.21,0,0,0-8.13,2.94,8.9,8.9,0,0,0-3.14,3.56c-1.56,3.41-1.2,8.3,2.6,11.06a32.44,32.44,0,0,0,8.58,4.06c.76.27,1,.14,1-.67C322.64,121.25,322.66,117.92,322.66,114.59Z" />
	<path class="cls-6"
		d="M272,131.75a51.88,51.88,0,0,1,.65-10A47.42,47.42,0,0,1,282,99.92a32.92,32.92,0,0,1,7.48-7.28,3,3,0,0,1,4.26.72,2.92,2.92,0,0,1-.87,4.13,33.2,33.2,0,0,0-8.68,9.79,44.55,44.55,0,0,0-6,18.6,67.42,67.42,0,0,0,1.71,22.2c.44,1.89-.05,3.2-1.46,3.86a3,3,0,0,1-4.29-2A75.88,75.88,0,0,1,272,136.12C271.91,134.67,272,133.21,272,131.75Z" />
	<rect class="cls-7" x="-259.1" y="-355.29" width="273.7" height="356.35" rx="23.64" />
	<path class="cls-8"
		d="M283.94,284.81a7.18,7.18,0,0,1,7,7V299c14.41,1.53,25.76,6.33,36.89,14,2.4,1.75,4.36,3.93,4.36,7.2,0,4.58-3.71,7.86-8.29,7.86a7.31,7.31,0,0,1-4.8-1.53c-9.61-7-19-11.13-28.81-12.66v53.91c33.17,7.43,47.14,20.3,47.14,42.35,0,23.35-19.2,39.5-46.49,41.25v15.5a7,7,0,0,1-14,0V450.91c-17.9-1.52-33.18-8.29-47.36-19.42a8.15,8.15,0,0,1-3.71-7,8,8,0,0,1,8.07-7.85,8.1,8.1,0,0,1,5,1.74c11.57,9.82,23.58,16.15,38.64,17.9V381.5c-32.31-7.64-46.49-19.64-46.49-42.56,0-22.48,19-39.07,45.83-40.38V291.8A7.19,7.19,0,0,1,283.94,284.81Zm-6.33,79.89V313.19c-18.56.87-29.69,11.35-29.69,24.66C247.92,350.51,253.82,358.37,277.61,364.7Zm12.66,19.64v52.6c18.77-1.09,30.34-11.34,30.34-25.75C320.61,398.31,314.06,390.45,290.27,384.34Z" />
	<path class="cls-8"
		d="M391.1,319.41l-21.39,7a12,12,0,0,1-3.71.66,7.51,7.51,0,0,1-7.43-7.43c0-3.71,2.4-6.11,6.12-7.42l25.1-8.73c3.49-1.09,6.54-2,9.38-2h.44a8.38,8.38,0,0,1,8.51,8.51V448.4a8.57,8.57,0,0,1-8.51,8.73,8.71,8.71,0,0,1-8.51-8.73Z" />
</svg>