<!-- Generator: Adobe Illustrator 22.0.0, SVG Export Plug-In . SVG Version: 6.00 Build 0)  -->
<svg version="1.1" id="Layer_1" xmlns="http://www.w3.org/2000/svg" xmlns:xlink="http://www.w3.org/1999/xlink" x="0px"
	y="0px" viewBox="0 0 81.9 26.8" style="enable-background:new 0 0 81.9 26.8;" xml:space="preserve">
	<style type="text/css">
		.st0 {
			fill: url(#SVGID_5_);
		}

		.st1 {
			fill: url(#SVGID_6_);
		}

		.st2 {
			fill: url(#SVGID_7_);
		}

		.st3 {
			fill: #00E5E5;
		}

		.st4 {
			fill: url(#SVGID_8_);
		}

		.st5 {
			fill: url(#SVGID_9_);
		}

		.st6 {
			fill: url(#SVGID_10_);
		}

		.st7 {
			fill: url(#SVGID_11_);
		}

		.st8 {
			fill: url(#SVGID_12_);
		}

		.st9 {
			fill: url(#SVGID_14_);
		}

		.st10 {
			fill: url(#SVGID_15_);
		}

		.st11 {
			fill: url(#SVGID_16_);
		}

		.st12 {
			fill: url(#SVGID_17_);
		}

		.st13 {
			fill: url(#SVGID_18_);
		}

		.st14 {
			fill: url(#SVGID_20_);
		}

		.st15 {
			fill: url(#SVGID_21_);
		}

		.st16 {
			fill: url(#SVGID_22_);
		}

		.st17 {
			fill: url(#SVGID_23_);
		}

		.st18 {
			fill: url(#SVGID_24_);
		}

		.st19 {
			fill: url(#SVGID_25_);
		}

		.st20 {
			fill: url(#SVGID_26_);
		}

		.st21 {
			fill: url(#SVGID_27_);
		}

		.st22 {
			fill: #2C2C2C;
		}

		.st23 {
			fill: #FFFFFF;
		}

		.st24 {
			fill: none;
			stroke: #2C2C2C;
			stroke-miterlimit: 10;
		}

		.st25 {
			fill: none;
			stroke: #FFFFFF;
			stroke-width: 0.5;
			stroke-miterlimit: 10;
		}

		.st26 {
			fill: #FABB04;
		}

		.st27 {
			opacity: 0.37;
			fill: #2C2C2C;
		}

		.st28 {
			fill: none;
			stroke: #FFFFFF;
			stroke-width: 2;
			stroke-miterlimit: 10;
		}

		.st29 {
			opacity: 0.37;
			fill: none;
			stroke: #2C2C2C;
			stroke-width: 2;
			stroke-miterlimit: 10;
		}

		.st30 {
			fill: url(#SVGID_28_);
		}

		.st31 {
			fill: #252947;
		}

		.st32 {
			fill: url(#SVGID_29_);
		}

		.st33 {
			fill: url(#SVGID_30_);
		}

		.st34 {
			fill: #00E5B5;
		}

		.st35 {
			fill: #E8F0F6;
		}

		.st36 {
			fill: none;
			stroke: #606060;
			stroke-width: 0.25;
			stroke-miterlimit: 10;
		}

		.st37 {
			fill: url(#SVGID_31_);
		}

		.st38 {
			fill: url(#SVGID_32_);
		}

		.st39 {
			fill: url(#SVGID_33_);
		}

		.st40 {
			fill: url(#SVGID_34_);
		}

		.st41 {
			fill: url(#SVGID_35_);
		}

		.st42 {
			fill: url(#SVGID_36_);
		}

		.st43 {
			fill: url(#SVGID_37_);
		}

		.st44 {
			fill: url(#SVGID_38_);
		}

		.st45 {
			fill: url(#SVGID_39_);
		}

		.st46 {
			fill: url(#SVGID_40_);
		}

		.st47 {
			fill: url(#SVGID_41_);
		}

		.st48 {
			fill: url(#SVGID_42_);
		}

		.st49 {
			fill: url(#SVGID_43_);
		}

		.st50 {
			fill: url(#SVGID_44_);
		}

		.st51 {
			fill: url(#SVGID_45_);
		}

		.st52 {
			fill: url(#SVGID_46_);
		}

		.st53 {
			fill: url(#SVGID_47_);
		}

		.st54 {
			fill: url(#SVGID_48_);
		}

		.st55 {
			fill: url(#SVGID_49_);
		}

		.st56 {
			fill: url(#SVGID_50_);
		}

		.st57 {
			fill: url(#SVGID_51_);
		}

		.st58 {
			fill: url(#SVGID_52_);
		}

		.st59 {
			fill: #606060;
		}

		.st60 {
			fill: #999999;
		}

		.st61 {
			fill: url(#SVGID_53_);
		}

		.st62 {
			fill: url(#SVGID_54_);
		}

		.st63 {
			opacity: 0.5;
		}

		.st64 {
			fill: url(#SVGID_55_);
		}

		.st65 {
			fill: url(#SVGID_56_);
		}

		.st66 {
			fill: #A6A8AB;
		}

		.st67 {
			fill: #231F20;
		}

		.st68 {
			clip-path: url(#SVGID_57_);
			fill: url(#SVGID_58_);
		}

		.st69 {
			clip-path: url(#SVGID_57_);
			fill: url(#SVGID_59_);
		}

		.st70 {
			clip-path: url(#SVGID_57_);
			fill: url(#SVGID_60_);
		}

		.st71 {
			clip-path: url(#SVGID_57_);
			fill: url(#SVGID_61_);
		}

		.st72 {
			fill: #F9F9F9;
		}

		.st73 {
			clip-path: url(#SVGID_62_);
			fill: url(#SVGID_63_);
		}

		.st74 {
			clip-path: url(#SVGID_62_);
			fill: url(#SVGID_64_);
		}

		.st75 {
			clip-path: url(#SVGID_62_);
			fill: url(#SVGID_65_);
		}

		.st76 {
			clip-path: url(#SVGID_62_);
			fill: url(#SVGID_66_);
		}

		.st77 {
			clip-path: url(#SVGID_67_);
			fill: url(#SVGID_68_);
		}

		.st78 {
			clip-path: url(#SVGID_67_);
			fill: url(#SVGID_69_);
		}

		.st79 {
			clip-path: url(#SVGID_67_);
			fill: url(#SVGID_70_);
		}

		.st80 {
			clip-path: url(#SVGID_67_);
			fill: url(#SVGID_71_);
		}

		.st81 {
			clip-path: url(#SVGID_72_);
			fill: url(#SVGID_73_);
		}

		.st82 {
			clip-path: url(#SVGID_72_);
			fill: url(#SVGID_74_);
		}

		.st83 {
			clip-path: url(#SVGID_72_);
			fill: url(#SVGID_75_);
		}

		.st84 {
			clip-path: url(#SVGID_72_);
			fill: url(#SVGID_76_);
		}

		.st85 {
			fill: #383838;
		}

		.st86 {
			fill: #373C81;
		}

		.st87 {
			fill: url(#SVGID_135_);
		}

		.st88 {
			fill: url(#SVGID_136_);
		}

		.st89 {
			fill: url(#SVGID_137_);
		}

		.st90 {
			fill: url(#SVGID_138_);
		}

		.st91 {
			fill: url(#SVGID_139_);
		}

		.st92 {
			fill: url(#SVGID_140_);
		}

		.st93 {
			fill: url(#SVGID_141_);
		}

		.st94 {
			fill: url(#SVGID_142_);
		}

		.st95 {
			fill: url(#SVGID_143_);
		}

		.st96 {
			fill: url(#SVGID_144_);
		}

		.st97 {
			fill: url(#SVGID_145_);
		}

		.st98 {
			fill: url(#SVGID_146_);
		}

		.st99 {
			fill: url(#SVGID_147_);
		}

		.st100 {
			fill: url(#SVGID_148_);
		}

		.st101 {
			fill: url(#SVGID_149_);
		}

		.st102 {
			fill: url(#SVGID_150_);
		}

		.st103 {
			fill: url(#SVGID_151_);
		}

		.st104 {
			fill: url(#SVGID_152_);
		}

		.st105 {
			fill: url(#SVGID_153_);
		}

		.st106 {
			fill: url(#SVGID_154_);
		}

		.st107 {
			fill: url(#SVGID_155_);
		}

		.st108 {
			fill: url(#SVGID_156_);
		}

		.st109 {
			fill: url(#SVGID_157_);
		}

		.st110 {
			fill: url(#SVGID_158_);
		}

		.st111 {
			fill: url(#SVGID_159_);
		}

		.st112 {
			fill: url(#SVGID_160_);
		}

		.st113 {
			fill: url(#SVGID_161_);
		}

		.st114 {
			fill: url(#SVGID_162_);
		}

		.st115 {
			fill: url(#SVGID_163_);
		}

		.st116 {
			fill: url(#SVGID_164_);
		}

		.st117 {
			fill: url(#SVGID_165_);
		}

		.st118 {
			opacity: 0.22;
			fill: url(#SVGID_166_);
		}

		.st119 {
			opacity: 0.22;
			fill: url(#SVGID_167_);
		}

		.st120 {
			opacity: 0.22;
			fill: url(#SVGID_168_);
		}

		.st121 {
			fill: url(#SVGID_169_);
		}

		.st122 {
			fill: url(#SVGID_170_);
		}

		.st123 {
			fill: url(#SVGID_171_);
		}

		.st124 {
			fill: url(#SVGID_174_);
		}

		.st125 {
			fill: url(#SVGID_177_);
		}

		.st126 {
			fill: url(#SVGID_180_);
		}

		.st127 {
			fill: url(#SVGID_183_);
		}

		.st128 {
			fill: url(#SVGID_184_);
		}

		.st129 {
			fill: url(#SVGID_185_);
		}

		.st130 {
			fill: url(#SVGID_186_);
		}

		.st131 {
			fill: url(#SVGID_187_);
		}

		.st132 {
			fill: url(#SVGID_188_);
		}

		.st133 {
			fill: url(#SVGID_189_);
		}

		.st134 {
			fill: url(#SVGID_190_);
		}

		.st135 {
			fill: #474B63;
		}

		.st136 {
			fill: url(#SVGID_191_);
		}

		.st137 {
			fill: url(#SVGID_192_);
		}

		.st138 {
			fill: url(#SVGID_193_);
		}

		.st139 {
			fill: url(#SVGID_194_);
		}

		.st140 {
			fill: url(#SVGID_197_);
		}

		.st141 {
			fill: url(#SVGID_198_);
		}

		.st142 {
			fill: url(#SVGID_199_);
		}

		.st143 {
			fill: url(#SVGID_200_);
		}

		.st144 {
			fill: url(#SVGID_201_);
		}

		.st145 {
			fill: url(#SVGID_202_);
		}

		.st146 {
			fill: url(#SVGID_203_);
		}

		.st147 {
			fill: url(#SVGID_206_);
		}

		.st148 {
			fill: url(#SVGID_207_);
		}

		.st149 {
			fill: url(#SVGID_208_);
		}

		.st150 {
			fill: url(#SVGID_209_);
		}

		.st151 {
			fill: url(#SVGID_210_);
		}

		.st152 {
			fill: url(#SVGID_211_);
		}

		.st153 {
			fill: url(#SVGID_212_);
		}

		.st154 {
			fill: url(#SVGID_213_);
		}

		.st155 {
			fill: url(#SVGID_214_);
		}

		.st156 {
			fill: url(#SVGID_215_);
		}

		.st157 {
			fill: url(#SVGID_218_);
		}

		.st158 {
			fill: url(#SVGID_219_);
		}

		.st159 {
			fill: url(#SVGID_220_);
		}

		.st160 {
			fill: url(#SVGID_221_);
		}

		.st161 {
			fill: url(#SVGID_222_);
		}

		.st162 {
			fill: url(#SVGID_223_);
		}

		.st163 {
			fill: url(#SVGID_224_);
		}

		.st164 {
			fill: url(#SVGID_227_);
		}

		.st165 {
			fill: url(#SVGID_228_);
		}

		.st166 {
			fill: url(#SVGID_229_);
		}

		.st167 {
			fill: url(#SVGID_230_);
		}

		.st168 {
			fill: url(#SVGID_231_);
		}

		.st169 {
			fill: url(#SVGID_232_);
		}

		.st170 {
			fill: url(#SVGID_233_);
		}

		.st171 {
			fill: url(#SVGID_234_);
		}

		.st172 {
			fill: url(#SVGID_237_);
		}

		.st173 {
			fill: url(#SVGID_238_);
		}

		.st174 {
			fill: url(#SVGID_239_);
		}

		.st175 {
			fill: url(#SVGID_240_);
		}

		.st176 {
			fill: url(#SVGID_241_);
		}

		.st177 {
			fill: url(#SVGID_242_);
		}

		.st178 {
			fill: url(#SVGID_243_);
		}

		.st179 {
			fill: url(#SVGID_246_);
		}

		.st180 {
			fill: url(#SVGID_247_);
		}

		.st181 {
			fill: url(#SVGID_248_);
		}

		.st182 {
			fill: url(#SVGID_249_);
		}

		.st183 {
			fill: url(#SVGID_250_);
		}

		.st184 {
			fill: url(#SVGID_251_);
		}

		.st185 {
			fill: url(#SVGID_252_);
		}

		.st186 {
			fill: url(#SVGID_253_);
		}

		.st187 {
			fill: url(#SVGID_254_);
		}

		.st188 {
			fill: url(#SVGID_255_);
		}

		.st189 {
			fill: url(#SVGID_258_);
		}

		.st190 {
			fill: url(#SVGID_259_);
		}

		.st191 {
			fill: url(#SVGID_260_);
		}

		.st192 {
			fill: url(#SVGID_261_);
		}

		.st193 {
			fill: url(#SVGID_262_);
		}

		.st194 {
			fill: url(#SVGID_263_);
		}

		.st195 {
			fill: url(#SVGID_264_);
		}

		.st196 {
			fill: url(#SVGID_267_);
		}

		.st197 {
			clip-path: url(#SVGID_268_);
			fill: url(#SVGID_269_);
		}

		.st198 {
			clip-path: url(#SVGID_268_);
			fill: url(#SVGID_270_);
		}

		.st199 {
			clip-path: url(#SVGID_268_);
			fill: url(#SVGID_271_);
		}

		.st200 {
			clip-path: url(#SVGID_268_);
			fill: url(#SVGID_272_);
		}

		.st201 {
			fill: url(#SVGID_273_);
		}

		.st202 {
			fill: url(#SVGID_278_);
		}

		.st203 {
			fill: url(#SVGID_279_);
		}

		.st204 {
			fill: url(#SVGID_280_);
		}

		.st205 {
			fill: #E7E7E7;
		}

		.st206 {
			fill: #FFFFFF;
			stroke: #A8A8A8;
			stroke-miterlimit: 10;
		}

		.st207 {
			fill: none;
			stroke: #A8A8A8;
			stroke-miterlimit: 10;
		}

		.st208 {
			fill: url(#SVGID_281_);
		}

		.st209 {
			opacity: 0.22;
			fill: url(#SVGID_282_);
		}

		.st210 {
			fill-rule: evenodd;
			clip-rule: evenodd;
			fill: url(#SVGID_283_);
		}

		.st211 {
			opacity: 0.3;
			clip-path: url(#SVGID_285_);
		}

		.st212 {
			fill: #D21D72;
		}

		.st213 {
			opacity: 0.7;
			clip-path: url(#SVGID_287_);
		}

		.st214 {
			fill: url(#SVGID_288_);
		}

		.st215 {
			opacity: 0.1;
		}

		.st216 {
			fill: url(#SVGID_289_);
		}

		.st217 {
			opacity: 0.3;
		}

		.st218 {
			fill: url(#SVGID_290_);
		}

		.st219 {
			opacity: 0.4;
		}

		.st220 {
			fill: url(#SVGID_291_);
		}

		.st221 {
			opacity: 0.6;
		}

		.st222 {
			fill: url(#SVGID_292_);
		}

		.st223 {
			fill: url(#SVGID_293_);
		}

		.st224 {
			fill: url(#SVGID_294_);
		}

		.st225 {
			fill: url(#SVGID_295_);
		}

		.st226 {
			fill: url(#SVGID_296_);
		}

		.st227 {
			fill: url(#SVGID_297_);
		}

		.st228 {
			opacity: 0.8;
		}

		.st229 {
			fill: url(#SVGID_298_);
		}

		.st230 {
			fill: url(#SVGID_299_);
		}

		.st231 {
			fill: url(#SVGID_300_);
		}

		.st232 {
			fill: url(#SVGID_301_);
		}

		.st233 {
			fill: url(#SVGID_302_);
		}

		.st234 {
			fill: url(#SVGID_303_);
		}

		.st235 {
			fill: url(#SVGID_304_);
		}

		.st236 {
			fill: url(#SVGID_305_);
		}

		.st237 {
			fill: url(#SVGID_306_);
		}

		.st238 {
			fill: url(#SVGID_307_);
		}

		.st239 {
			fill: url(#SVGID_308_);
		}

		.st240 {
			fill: url(#SVGID_309_);
		}

		.st241 {
			fill: url(#SVGID_310_);
		}

		.st242 {
			fill: url(#SVGID_311_);
		}

		.st243 {
			fill: url(#SVGID_312_);
		}

		.st244 {
			fill: url(#SVGID_313_);
		}

		.st245 {
			fill: url(#SVGID_314_);
		}

		.st246 {
			fill: url(#SVGID_315_);
		}

		.st247 {
			fill: url(#SVGID_316_);
		}

		.st248 {
			fill: url(#SVGID_317_);
		}

		.st249 {
			fill: url(#SVGID_318_);
		}

		.st250 {
			fill: url(#SVGID_319_);
		}

		.st251 {
			fill: url(#SVGID_320_);
		}

		.st252 {
			fill: url(#SVGID_321_);
		}

		.st253 {
			fill: url(#SVGID_322_);
		}

		.st254 {
			fill: url(#SVGID_323_);
		}

		.st255 {
			fill: url(#SVGID_324_);
		}

		.st256 {
			clip-path: url(#SVGID_326_);
		}

		.st257 {
			fill: url(#SVGID_327_);
		}

		.st258 {
			fill: url(#SVGID_328_);
		}

		.st259 {
			fill: url(#SVGID_329_);
		}

		.st260 {
			fill: url(#SVGID_330_);
		}

		.st261 {
			fill: url(#SVGID_331_);
		}

		.st262 {
			fill: url(#SVGID_332_);
		}

		.st263 {
			opacity: 0.3;
			fill: #430148;
		}

		.st264 {
			opacity: 0.3;
			fill: #FFFFFF;
		}

		.st265 {
			opacity: 0.5;
			fill: #FFFFFF;
		}

		.st266 {
			fill: url(#SVGID_333_);
		}

		.st267 {
			fill: url(#SVGID_334_);
		}

		.st268 {
			fill: url(#SVGID_335_);
		}

		.st269 {
			fill: #63156B;
		}

		.st270 {
			fill: url(#SVGID_336_);
		}

		.st271 {
			fill: url(#SVGID_337_);
		}

		.st272 {
			fill: url(#SVGID_338_);
		}

		.st273 {
			fill: url(#SVGID_339_);
		}

		.st274 {
			fill: url(#SVGID_340_);
		}

		.st275 {
			fill: url(#SVGID_341_);
		}

		.st276 {
			fill: url(#SVGID_342_);
		}

		.st277 {
			fill: url(#SVGID_343_);
		}

		.st278 {
			fill: url(#SVGID_344_);
		}

		.st279 {
			filter: url(#Adobe_OpacityMaskFilter);
		}

		.st280 {
			fill: url(#SVGID_346_);
		}

		.st281 {
			opacity: 0.4;
			mask: url(#SVGID_345_);
		}

		.st282 {
			fill: url(#SVGID_347_);
		}

		.st283 {
			fill: url(#SVGID_348_);
		}

		.st284 {
			fill: url(#SVGID_349_);
		}

		.st285 {
			fill: url(#SVGID_350_);
		}

		.st286 {
			fill: url(#SVGID_351_);
		}

		.st287 {
			fill: url(#SVGID_352_);
		}

		.st288 {
			fill: url(#SVGID_353_);
		}

		.st289 {
			fill: url(#SVGID_354_);
		}

		.st290 {
			fill: url(#SVGID_355_);
		}

		.st291 {
			fill: url(#SVGID_356_);
		}

		.st292 {
			fill: url(#SVGID_357_);
		}

		.st293 {
			fill: url(#SVGID_358_);
		}

		.st294 {
			fill: url(#SVGID_359_);
		}

		.st295 {
			fill: url(#SVGID_360_);
		}

		.st296 {
			fill: url(#SVGID_361_);
		}

		.st297 {
			fill: url(#SVGID_362_);
		}

		.st298 {
			fill: url(#SVGID_363_);
		}

		.st299 {
			fill: url(#SVGID_364_);
		}

		.st300 {
			clip-path: url(#SVGID_366_);
		}

		.st301 {
			fill: url(#SVGID_367_);
		}

		.st302 {
			fill: url(#SVGID_368_);
		}

		.st303 {
			fill: url(#SVGID_369_);
		}

		.st304 {
			fill: url(#SVGID_370_);
		}

		.st305 {
			fill: url(#SVGID_371_);
		}

		.st306 {
			fill: url(#SVGID_372_);
		}

		.st307 {
			fill: url(#SVGID_373_);
		}

		.st308 {
			fill: url(#SVGID_374_);
		}

		.st309 {
			fill: url(#SVGID_375_);
		}

		.st310 {
			fill: url(#SVGID_376_);
		}

		.st311 {
			fill: url(#SVGID_377_);
		}

		.st312 {
			fill: url(#SVGID_378_);
		}

		.st313 {
			fill: url(#SVGID_379_);
		}

		.st314 {
			fill: url(#SVGID_380_);
		}

		.st315 {
			fill: url(#SVGID_381_);
		}

		.st316 {
			fill: url(#SVGID_382_);
		}

		.st317 {
			fill: url(#SVGID_383_);
		}

		.st318 {
			fill: url(#SVGID_384_);
		}

		.st319 {
			fill: url(#SVGID_385_);
		}

		.st320 {
			fill: url(#SVGID_386_);
		}

		.st321 {
			fill: url(#SVGID_387_);
		}

		.st322 {
			fill: url(#SVGID_388_);
		}

		.st323 {
			fill: url(#SVGID_389_);
		}

		.st324 {
			fill: url(#SVGID_390_);
		}

		.st325 {
			fill: url(#SVGID_391_);
		}

		.st326 {
			fill: url(#SVGID_392_);
		}

		.st327 {
			fill: url(#SVGID_393_);
		}

		.st328 {
			fill: url(#SVGID_394_);
		}

		.st329 {
			fill: url(#SVGID_395_);
		}

		.st330 {
			fill: url(#SVGID_396_);
		}

		.st331 {
			fill: url(#SVGID_397_);
		}

		.st332 {
			fill: url(#SVGID_398_);
		}

		.st333 {
			fill: url(#SVGID_399_);
		}

		.st334 {
			fill: url(#SVGID_400_);
		}

		.st335 {
			fill: url(#SVGID_401_);
		}

		.st336 {
			fill: url(#SVGID_402_);
		}

		.st337 {
			fill: url(#SVGID_403_);
		}

		.st338 {
			fill: url(#SVGID_404_);
		}

		.st339 {
			fill: url(#SVGID_405_);
		}

		.st340 {
			fill: url(#SVGID_406_);
		}

		.st341 {
			fill: url(#SVGID_407_);
		}

		.st342 {
			fill: url(#SVGID_408_);
		}

		.st343 {
			fill: url(#SVGID_409_);
		}

		.st344 {
			fill: url(#SVGID_410_);
		}

		.st345 {
			fill: url(#SVGID_411_);
		}

		.st346 {
			fill: url(#SVGID_412_);
		}

		.st347 {
			fill: url(#SVGID_413_);
		}

		.st348 {
			fill: url(#SVGID_414_);
		}

		.st349 {
			fill: url(#SVGID_415_);
		}

		.st350 {
			fill: url(#SVGID_416_);
		}

		.st351 {
			fill: url(#SVGID_417_);
		}

		.st352 {
			fill: url(#SVGID_418_);
		}

		.st353 {
			fill: url(#SVGID_419_);
		}

		.st354 {
			fill: url(#SVGID_420_);
		}

		.st355 {
			fill: url(#SVGID_421_);
		}

		.st356 {
			fill: url(#SVGID_422_);
		}

		.st357 {
			fill: url(#SVGID_423_);
		}

		.st358 {
			fill: url(#SVGID_424_);
		}

		.st359 {
			fill: url(#SVGID_425_);
		}

		.st360 {
			fill: url(#SVGID_426_);
		}

		.st361 {
			fill: url(#SVGID_427_);
		}

		.st362 {
			fill: url(#SVGID_428_);
		}

		.st363 {
			fill: url(#SVGID_429_);
		}

		.st364 {
			fill: url(#SVGID_430_);
		}

		.st365 {
			fill: url(#SVGID_431_);
		}

		.st366 {
			fill: url(#SVGID_432_);
		}

		.st367 {
			fill: url(#SVGID_433_);
		}

		.st368 {
			fill: url(#SVGID_434_);
		}

		.st369 {
			fill: url(#SVGID_435_);
		}

		.st370 {
			fill: url(#SVGID_436_);
		}

		.st371 {
			fill: url(#SVGID_437_);
		}

		.st372 {
			fill: url(#SVGID_438_);
		}

		.st373 {
			fill: url(#SVGID_439_);
		}

		.st374 {
			fill: url(#SVGID_440_);
		}

		.st375 {
			fill: url(#SVGID_441_);
		}

		.st376 {
			fill: url(#SVGID_442_);
		}

		.st377 {
			fill: url(#SVGID_443_);
		}

		.st378 {
			fill: url(#SVGID_444_);
		}

		.st379 {
			fill: url(#SVGID_445_);
		}

		.st380 {
			fill: url(#SVGID_446_);
		}

		.st381 {
			fill: url(#SVGID_447_);
		}

		.st382 {
			fill: url(#SVGID_448_);
		}

		.st383 {
			fill: url(#SVGID_449_);
		}

		.st384 {
			fill: url(#SVGID_450_);
		}

		.st385 {
			fill: url(#SVGID_451_);
		}

		.st386 {
			fill: url(#SVGID_452_);
		}

		.st387 {
			fill: url(#SVGID_453_);
		}

		.st388 {
			fill: url(#SVGID_454_);
		}

		.st389 {
			fill: url(#SVGID_455_);
		}

		.st390 {
			fill: url(#SVGID_456_);
		}

		.st391 {
			fill: url(#SVGID_457_);
		}

		.st392 {
			fill: url(#SVGID_458_);
		}

		.st393 {
			fill: url(#SVGID_459_);
		}

		.st394 {
			fill: url(#SVGID_460_);
		}

		.st395 {
			fill: url(#SVGID_461_);
		}

		.st396 {
			fill: url(#SVGID_462_);
		}

		.st397 {
			fill: url(#SVGID_463_);
		}

		.st398 {
			clip-path: url(#SVGID_464_);
			fill: url(#SVGID_465_);
		}

		.st399 {
			clip-path: url(#SVGID_464_);
			fill: url(#SVGID_466_);
		}

		.st400 {
			clip-path: url(#SVGID_464_);
			fill: url(#SVGID_467_);
		}

		.st401 {
			clip-path: url(#SVGID_464_);
			fill: url(#SVGID_468_);
		}

		.st402 {
			fill: url(#SVGID_469_);
		}

		.st403 {
			fill: url(#SVGID_470_);
		}

		.st404 {
			opacity: 0.22;
			fill: url(#SVGID_471_);
		}

		.st405 {
			opacity: 0.22;
			fill: url(#SVGID_472_);
		}

		.st406 {
			fill: url(#SVGID_473_);
		}

		.st407 {
			opacity: 0.22;
			fill: url(#SVGID_474_);
		}

		.st408 {
			opacity: 0.22;
			fill: url(#SVGID_475_);
		}

		.st409 {
			opacity: 0.67;
		}

		.st410 {
			fill: url(#SVGID_476_);
		}

		.st411 {
			fill: url(#SVGID_477_);
		}

		.st412 {
			fill: url(#SVGID_478_);
		}

		.st413 {
			fill: url(#SVGID_479_);
		}

		.st414 {
			fill: url(#SVGID_480_);
		}

		.st415 {
			fill: url(#SVGID_481_);
		}

		.st416 {
			fill: url(#SVGID_482_);
		}

		.st417 {
			fill: url(#SVGID_485_);
		}

		.st418 {
			fill: url(#SVGID_486_);
		}

		.st419 {
			fill: url(#SVGID_487_);
		}

		.st420 {
			fill: url(#SVGID_488_);
		}

		.st421 {
			fill: url(#SVGID_489_);
		}

		.st422 {
			fill: url(#SVGID_490_);
		}

		.st423 {
			fill: url(#SVGID_491_);
		}

		.st424 {
			fill: url(#SVGID_494_);
		}

		.st425 {
			fill: url(#SVGID_495_);
		}

		.st426 {
			fill: url(#SVGID_496_);
		}

		.st427 {
			fill: url(#SVGID_497_);
		}

		.st428 {
			fill: url(#SVGID_498_);
		}

		.st429 {
			fill: url(#SVGID_499_);
		}

		.st430 {
			fill: url(#SVGID_500_);
		}

		.st431 {
			fill: url(#SVGID_501_);
		}

		.st432 {
			fill: url(#SVGID_502_);
		}

		.st433 {
			fill: url(#SVGID_503_);
		}

		.st434 {
			fill: url(#SVGID_506_);
		}

		.st435 {
			fill: url(#SVGID_507_);
		}

		.st436 {
			fill: url(#SVGID_508_);
		}

		.st437 {
			fill: url(#SVGID_509_);
		}

		.st438 {
			fill: url(#SVGID_510_);
		}

		.st439 {
			fill: url(#SVGID_511_);
		}

		.st440 {
			fill: url(#SVGID_512_);
		}

		.st441 {
			fill: url(#SVGID_513_);
		}

		.st442 {
			fill: url(#SVGID_516_);
		}

		.st443 {
			fill: url(#SVGID_517_);
		}

		.st444 {
			fill: url(#SVGID_518_);
		}

		.st445 {
			fill: url(#SVGID_519_);
		}

		.st446 {
			fill: url(#SVGID_520_);
		}

		.st447 {
			fill: url(#SVGID_521_);
		}

		.st448 {
			fill: url(#SVGID_522_);
		}

		.st449 {
			fill: url(#SVGID_525_);
		}

		.st450 {
			fill: url(#SVGID_526_);
		}

		.st451 {
			fill: url(#SVGID_527_);
		}

		.st452 {
			fill: url(#SVGID_528_);
		}

		.st453 {
			fill: url(#SVGID_529_);
		}

		.st454 {
			fill: url(#SVGID_530_);
		}

		.st455 {
			fill: url(#SVGID_531_);
		}

		.st456 {
			fill: url(#SVGID_534_);
		}

		.st457 {
			fill: url(#SVGID_535_);
		}

		.st458 {
			fill: url(#SVGID_536_);
		}

		.st459 {
			fill: url(#SVGID_537_);
		}

		.st460 {
			fill: url(#SVGID_538_);
		}

		.st461 {
			fill: url(#SVGID_539_);
		}

		.st462 {
			fill: url(#SVGID_540_);
		}

		.st463 {
			fill: url(#SVGID_541_);
		}

		.st464 {
			fill: url(#SVGID_542_);
		}

		.st465 {
			fill: url(#SVGID_543_);
		}

		.st466 {
			fill: url(#SVGID_546_);
		}

		.st467 {
			fill: url(#SVGID_547_);
		}

		.st468 {
			fill: url(#SVGID_548_);
		}

		.st469 {
			fill: url(#SVGID_549_);
		}

		.st470 {
			fill: url(#SVGID_550_);
		}

		.st471 {
			fill: url(#SVGID_551_);
		}

		.st472 {
			fill: url(#SVGID_552_);
		}

		.st473 {
			fill: url(#SVGID_553_);
		}

		.st474 {
			opacity: 0.22;
			fill: url(#SVGID_556_);
		}

		.st475 {
			fill: none;
			stroke: #00E5E5;
			stroke-miterlimit: 10;
		}

		.st476 {
			opacity: 0.22;
			fill: url(#SVGID_557_);
		}

		.st477 {
			opacity: 0.22;
			fill: url(#SVGID_558_);
		}

		.st478 {
			opacity: 0.22;
			fill: url(#SVGID_559_);
		}

		.st479 {
			opacity: 0.22;
			fill: url(#SVGID_560_);
		}

		.st480 {
			fill: url(#SVGID_561_);
		}

		.st481 {
			fill: url(#SVGID_562_);
		}

		.st482 {
			fill: url(#SVGID_563_);
		}

		.st483 {
			fill: url(#SVGID_564_);
		}

		.st484 {
			fill: url(#SVGID_565_);
		}

		.st485 {
			fill: url(#SVGID_566_);
		}

		.st486 {
			fill: url(#SVGID_567_);
		}

		.st487 {
			fill: url(#SVGID_568_);
		}

		.st488 {
			fill: url(#SVGID_569_);
		}

		.st489 {
			fill: url(#SVGID_570_);
		}

		.st490 {
			opacity: 0.22;
			fill: url(#SVGID_571_);
		}

		.st491 {
			fill: url(#SVGID_572_);
		}

		.st492 {
			fill: url(#SVGID_573_);
		}

		.st493 {
			fill: url(#SVGID_574_);
		}

		.st494 {
			fill: url(#SVGID_575_);
		}

		.st495 {
			fill: url(#SVGID_576_);
		}

		.st496 {
			fill: url(#SVGID_577_);
		}

		.st497 {
			fill: url(#SVGID_578_);
		}

		.st498 {
			fill: url(#SVGID_579_);
		}

		.st499 {
			fill: url(#SVGID_580_);
		}

		.st500 {
			fill: url(#SVGID_581_);
		}

		.st501 {
			fill: url(#SVGID_582_);
		}

		.st502 {
			fill: url(#SVGID_583_);
		}

		.st503 {
			fill: url(#SVGID_584_);
		}

		.st504 {
			fill: url(#SVGID_585_);
		}

		.st505 {
			fill: url(#SVGID_586_);
		}

		.st506 {
			fill: url(#SVGID_587_);
		}

		.st507 {
			fill: url(#SVGID_588_);
		}

		.st508 {
			fill: url(#SVGID_589_);
		}

		.st509 {
			fill: url(#SVGID_590_);
		}

		.st510 {
			fill: url(#SVGID_591_);
		}

		.st511 {
			fill: url(#SVGID_592_);
		}

		.st512 {
			fill: url(#SVGID_595_);
		}

		.st513 {
			fill: url(#SVGID_596_);
		}

		.st514 {
			fill: url(#SVGID_597_);
		}

		.st515 {
			fill: url(#SVGID_598_);
		}

		.st516 {
			fill: url(#SVGID_599_);
		}

		.st517 {
			fill: url(#SVGID_600_);
		}

		.st518 {
			fill: url(#SVGID_601_);
		}

		.st519 {
			fill: url(#SVGID_604_);
		}

		.st520 {
			fill: url(#SVGID_605_);
		}

		.st521 {
			fill: url(#SVGID_606_);
		}

		.st522 {
			fill: url(#SVGID_607_);
		}

		.st523 {
			fill: url(#SVGID_608_);
		}

		.st524 {
			fill: url(#SVGID_609_);
		}

		.st525 {
			fill: url(#SVGID_610_);
		}

		.st526 {
			fill: url(#SVGID_611_);
		}

		.st527 {
			fill: url(#SVGID_612_);
		}

		.st528 {
			fill: url(#SVGID_613_);
		}

		.st529 {
			fill: url(#SVGID_616_);
		}

		.st530 {
			fill: url(#SVGID_617_);
		}

		.st531 {
			fill: url(#SVGID_618_);
		}

		.st532 {
			fill: url(#SVGID_619_);
		}

		.st533 {
			fill: url(#SVGID_620_);
		}

		.st534 {
			fill: url(#SVGID_621_);
		}

		.st535 {
			fill: url(#SVGID_622_);
		}

		.st536 {
			fill: url(#SVGID_625_);
		}

		.st537 {
			fill: url(#SVGID_626_);
		}

		.st538 {
			fill: url(#SVGID_627_);
		}

		.st539 {
			fill: url(#SVGID_628_);
		}

		.st540 {
			fill: url(#SVGID_629_);
		}

		.st541 {
			fill: url(#SVGID_630_);
		}

		.st542 {
			fill: url(#SVGID_631_);
		}

		.st543 {
			fill: url(#SVGID_632_);
		}

		.st544 {
			fill: url(#SVGID_633_);
		}

		.st545 {
			fill: url(#SVGID_634_);
		}

		.st546 {
			fill: url(#SVGID_635_);
		}

		.st547 {
			fill: url(#SVGID_638_);
		}

		.st548 {
			fill: url(#SVGID_639_);
		}

		.st549 {
			fill: url(#SVGID_640_);
		}

		.st550 {
			fill: url(#SVGID_641_);
		}

		.st551 {
			fill: url(#SVGID_642_);
		}

		.st552 {
			fill: url(#SVGID_643_);
		}

		.st553 {
			fill: url(#SVGID_644_);
		}

		.st554 {
			fill: url(#SVGID_647_);
		}

		.st555 {
			fill: url(#SVGID_648_);
		}

		.st556 {
			fill: url(#SVGID_649_);
		}

		.st557 {
			fill: url(#SVGID_650_);
		}

		.st558 {
			fill: url(#SVGID_651_);
		}

		.st559 {
			fill: url(#SVGID_652_);
		}

		.st560 {
			fill: url(#SVGID_653_);
		}

		.st561 {
			fill: url(#SVGID_654_);
		}

		.st562 {
			fill: url(#SVGID_655_);
		}

		.st563 {
			fill: url(#SVGID_656_);
		}

		.st564 {
			fill: url(#SVGID_659_);
		}

		.st565 {
			fill: url(#SVGID_660_);
		}

		.st566 {
			fill: url(#SVGID_661_);
		}

		.st567 {
			fill: url(#SVGID_662_);
		}

		.st568 {
			fill: url(#SVGID_663_);
		}

		.st569 {
			fill: url(#SVGID_664_);
		}

		.st570 {
			fill: url(#SVGID_665_);
		}

		.st571 {
			fill: url(#SVGID_668_);
		}

		.st572 {
			fill: url(#SVGID_669_);
		}

		.st573 {
			fill: url(#SVGID_670_);
		}

		.st574 {
			fill: url(#SVGID_671_);
		}

		.st575 {
			fill: url(#SVGID_672_);
		}

		.st576 {
			fill: url(#SVGID_673_);
		}

		.st577 {
			fill: url(#SVGID_674_);
		}

		.st578 {
			fill: url(#SVGID_675_);
		}

		.st579 {
			fill: url(#SVGID_676_);
		}

		.st580 {
			opacity: 0.22;
			fill: url(#SVGID_681_);
		}

		.st581 {
			opacity: 0.22;
			fill: url(#SVGID_682_);
		}

		.st582 {
			opacity: 0.22;
			fill: url(#SVGID_683_);
		}

		.st583 {
			opacity: 0.22;
			fill: url(#SVGID_684_);
		}

		.st584 {
			fill: #AFAFAF;
		}

		.st585 {
			fill: url(#SVGID_697_);
		}

		.st586 {
			opacity: 0.22;
			fill: url(#SVGID_698_);
		}

		.st587 {
			fill: url(#SVGID_699_);
		}

		.st588 {
			fill: url(#SVGID_700_);
		}

		.st589 {
			fill: url(#SVGID_701_);
		}

		.st590 {
			fill: url(#SVGID_702_);
		}

		.st591 {
			fill: url(#SVGID_703_);
		}

		.st592 {
			fill: url(#SVGID_704_);
		}

		.st593 {
			fill: url(#SVGID_705_);
		}

		.st594 {
			fill: url(#SVGID_706_);
		}

		.st595 {
			fill: url(#SVGID_707_);
		}

		.st596 {
			fill: url(#SVGID_708_);
		}

		.st597 {
			opacity: 0.22;
			fill: url(#SVGID_711_);
		}

		.st598 {
			opacity: 0.22;
			fill: url(#SVGID_712_);
		}

		.st599 {
			opacity: 0.22;
			fill: url(#SVGID_713_);
		}

		.st600 {
			opacity: 0.22;
			fill: url(#SVGID_714_);
		}

		.st601 {
			opacity: 0.22;
			fill: url(#SVGID_715_);
		}

		.st602 {
			fill: url(#SVGID_716_);
		}

		.st603 {
			opacity: 0.22;
			fill: url(#SVGID_717_);
		}

		.st604 {
			fill: url(#SVGID_718_);
		}

		.st605 {
			fill: url(#SVGID_719_);
		}

		.st606 {
			fill: url(#SVGID_720_);
		}

		.st607 {
			fill: url(#SVGID_721_);
		}

		.st608 {
			fill: url(#SVGID_722_);
		}

		.st609 {
			fill: url(#SVGID_723_);
		}

		.st610 {
			fill: url(#SVGID_724_);
		}

		.st611 {
			fill: url(#SVGID_725_);
		}

		.st612 {
			fill: url(#SVGID_726_);
		}

		.st613 {
			fill: url(#SVGID_729_);
		}

		.st614 {
			fill: url(#SVGID_730_);
		}

		.st615 {
			fill: url(#SVGID_731_);
		}

		.st616 {
			fill: url(#SVGID_732_);
		}

		.st617 {
			fill: url(#SVGID_733_);
		}

		.st618 {
			fill: url(#SVGID_734_);
		}

		.st619 {
			fill: url(#SVGID_735_);
		}

		.st620 {
			fill: url(#SVGID_736_);
		}

		.st621 {
			fill: url(#SVGID_737_);
		}

		.st622 {
			fill: url(#SVGID_738_);
		}

		.st623 {
			fill: url(#SVGID_739_);
		}
	</style>
	<path class="st23" d="M81.9,23.2c0,2-1.6,3.6-3.6,3.6H3.6c-2,0-3.6-1.6-3.6-3.6V3.6C0,1.6,1.6,0,3.6,0h74.7c2,0,3.6,1.6,3.6,3.6
	V23.2z" />
	<path
		d="M14.1,4.6H7.5C6.7,4.6,6,5.2,6,6v14.8c0,0.8,0.6,1.4,1.4,1.4h6.7c0.8,0,1.4-0.6,1.4-1.4V6C15.6,5.2,14.9,4.6,14.1,4.6z
	 M10.8,21.2c-0.5,0-1-0.4-1-1c0-0.5,0.4-1,1-1c0.5,0,1,0.4,1,1C11.8,20.8,11.3,21.2,10.8,21.2z M14.5,18.8H7.2V7.9h7.3V18.8z" />
	<g>
		<path d="M21.1,7.2l-0.4,1.2h-0.5l1.3-3.9h0.6l1.3,3.9h-0.5l-0.4-1.2H21.1z M22.3,6.8L22,5.7c-0.1-0.3-0.1-0.5-0.2-0.7h0
		c-0.1,0.2-0.1,0.5-0.2,0.7l-0.4,1.1H22.3z" />
		<path
			d="M23.9,5.6l0.6,1.6c0.1,0.3,0.2,0.5,0.2,0.7h0c0.1-0.2,0.1-0.5,0.2-0.7l0.5-1.6H26l-1.1,2.8h-0.5l-1.1-2.8H23.9z" />
		<path d="M28.4,7.8c0,0.2,0,0.5,0,0.7H28l0-0.4h0c-0.2,0.2-0.5,0.4-0.9,0.4c-0.6,0-0.9-0.4-0.9-0.8c0-0.7,0.6-1,1.7-1V6.6
		c0-0.2-0.1-0.7-0.6-0.6C27,6,26.7,6,26.5,6.2l-0.1-0.3c0.2-0.1,0.6-0.2,0.9-0.2c0.9,0,1.1,0.6,1.1,1.1V7.8z M27.9,7
		c-0.6,0-1.2,0.1-1.2,0.6c0,0.3,0.2,0.5,0.5,0.5c0.4,0,0.6-0.2,0.7-0.5c0-0.1,0-0.1,0-0.2V7z" />
		<path d="M29.4,5.1c-0.2,0-0.3-0.2-0.3-0.3c0-0.2,0.1-0.3,0.3-0.3c0.2,0,0.3,0.1,0.3,0.3C29.8,5,29.6,5.1,29.4,5.1L29.4,5.1z
		 M29.2,8.4V5.6h0.5v2.8H29.2z" />
		<path d="M30.5,4.3H31v4.1h-0.5V4.3z" />
		<path d="M33.8,7.8c0,0.2,0,0.5,0,0.7h-0.5l0-0.4h0c-0.2,0.2-0.5,0.4-0.9,0.4c-0.6,0-0.9-0.4-0.9-0.8c0-0.7,0.6-1,1.7-1V6.6
		c0-0.2-0.1-0.7-0.6-0.6c-0.3,0-0.5,0.1-0.7,0.2l-0.1-0.3c0.2-0.1,0.6-0.2,0.9-0.2c0.9,0,1.1,0.6,1.1,1.1V7.8z M33.3,7
		c-0.6,0-1.2,0.1-1.2,0.6c0,0.3,0.2,0.5,0.5,0.5c0.4,0,0.6-0.2,0.7-0.5c0-0.1,0-0.1,0-0.2V7z" />
		<path d="M34.6,4.3h0.5v1.8h0c0.2-0.3,0.5-0.5,1-0.5c0.7,0,1.2,0.6,1.2,1.4c0,1-0.6,1.5-1.3,1.5c-0.4,0-0.7-0.2-0.9-0.5h0l0,0.5
		h-0.4c0-0.2,0-0.5,0-0.7V4.3z M35.1,7.3c0,0.1,0,0.1,0,0.2c0.1,0.4,0.4,0.6,0.8,0.6c0.5,0,0.9-0.4,0.9-1.1c0-0.6-0.3-1-0.8-1
		c-0.3,0-0.7,0.2-0.8,0.6c0,0.1,0,0.1,0,0.2V7.3z" />
		<path d="M37.9,4.3h0.5v4.1h-0.5V4.3z" />
		<path d="M39.5,7.1c0,0.7,0.4,1,1,1C40.8,8.1,41,8,41.2,8l0.1,0.4c-0.2,0.1-0.5,0.2-0.9,0.2c-0.9,0-1.4-0.6-1.4-1.4
		c0-0.9,0.5-1.5,1.3-1.5c0.9,0,1.2,0.8,1.2,1.3c0,0.1,0,0.2,0,0.2L39.5,7.1z M41,6.8c0-0.3-0.1-0.8-0.7-0.8c-0.5,0-0.7,0.5-0.8,0.8
		H41z" />
		<path d="M44.4,8.5c-0.8,0-1.3-0.6-1.3-1.4c0-0.9,0.6-1.5,1.4-1.5c0.8,0,1.3,0.6,1.3,1.4C45.8,8.1,45.1,8.5,44.4,8.5L44.4,8.5z
		 M44.4,8.1c0.5,0,0.9-0.5,0.9-1.1C45.3,6.6,45,6,44.4,6c-0.6,0-0.9,0.6-0.9,1.1C43.6,7.7,43.9,8.1,44.4,8.1L44.4,8.1z" />
		<path d="M46.4,6.4c0-0.3,0-0.5,0-0.8h0.5l0,0.5h0c0.1-0.3,0.5-0.5,0.9-0.5c0.4,0,1,0.2,1,1.2v1.7h-0.5V6.8c0-0.5-0.2-0.8-0.6-0.8
		C47.3,6,47,6.2,47,6.5c0,0.1,0,0.2,0,0.2v1.7h-0.5V6.4z" />
		<path d="M51.4,5v0.7h0.7V6h-0.7v1.5c0,0.3,0.1,0.5,0.4,0.5c0.1,0,0.2,0,0.3,0l0,0.4c-0.1,0-0.3,0.1-0.5,0.1c-0.2,0-0.4-0.1-0.6-0.2
		c-0.1-0.2-0.2-0.4-0.2-0.7V6h-0.4V5.6h0.4V5.1L51.4,5z" />
		<path d="M52.7,4.3h0.5v1.7h0c0.1-0.1,0.2-0.3,0.4-0.4c0.2-0.1,0.3-0.1,0.5-0.1c0.4,0,1,0.2,1,1.2v1.7h-0.5V6.8
		c0-0.5-0.2-0.8-0.6-0.8c-0.3,0-0.6,0.2-0.7,0.5c0,0.1,0,0.1,0,0.2v1.7h-0.5V4.3z" />
		<path d="M56.2,7.1c0,0.7,0.4,1,1,1c0.4,0,0.6-0.1,0.8-0.1L58,8.3c-0.2,0.1-0.5,0.2-0.9,0.2c-0.9,0-1.4-0.6-1.4-1.4
		c0-0.9,0.5-1.5,1.3-1.5c0.9,0,1.2,0.8,1.2,1.3c0,0.1,0,0.2,0,0.2L56.2,7.1z M57.7,6.8c0-0.3-0.1-0.8-0.7-0.8
		c-0.5,0-0.7,0.5-0.8,0.8H57.7z" />
		<path d="M60.2,5.1c-0.2,0-0.3-0.2-0.3-0.3c0-0.2,0.1-0.3,0.3-0.3c0.2,0,0.3,0.1,0.3,0.3C60.5,5,60.4,5.1,60.2,5.1L60.2,5.1z
		 M59.9,8.4V5.6h0.5v2.8H59.9z" />
		<path d="M61.3,4.6c0.2,0,0.6-0.1,1-0.1c0.5,0,0.9,0.1,1.1,0.3c0.2,0.2,0.3,0.5,0.3,0.8c0,0.4-0.1,0.6-0.3,0.8
		c-0.3,0.3-0.7,0.4-1.2,0.4c-0.2,0-0.3,0-0.4,0v1.6h-0.5V4.6z M61.8,6.5c0.1,0,0.3,0,0.4,0c0.6,0,1-0.3,1-0.8c0-0.5-0.4-0.8-0.9-0.8
		c-0.2,0-0.4,0-0.5,0V6.5z" />
		<path d="M64.3,4.3h0.5v1.7h0c0.1-0.1,0.2-0.3,0.4-0.4c0.2-0.1,0.3-0.1,0.5-0.1c0.4,0,1,0.2,1,1.2v1.7h-0.5V6.8
		C66.2,6.4,66,6,65.5,6c-0.3,0-0.6,0.2-0.7,0.5c0,0.1,0,0.1,0,0.2v1.7h-0.5V4.3z" />
		<path
			d="M68.6,8.5c-0.8,0-1.3-0.6-1.3-1.4c0-0.9,0.6-1.5,1.4-1.5C69.5,5.6,70,6.2,70,7C70,8.1,69.3,8.5,68.6,8.5L68.6,8.5z
		 M68.6,8.1c0.5,0,0.9-0.5,0.9-1.1c0-0.5-0.2-1.1-0.8-1.1c-0.6,0-0.9,0.6-0.9,1.1C67.8,7.7,68.1,8.1,68.6,8.1L68.6,8.1z" />
		<path d="M70.6,6.4c0-0.3,0-0.5,0-0.8h0.5l0,0.5h0c0.1-0.3,0.5-0.5,0.9-0.5c0.4,0,1,0.2,1,1.2v1.7h-0.5V6.8c0-0.5-0.2-0.8-0.6-0.8
		c-0.3,0-0.6,0.2-0.7,0.5c0,0.1,0,0.2,0,0.2v1.7h-0.5V6.4z" />
		<path d="M74.1,7.1c0,0.7,0.4,1,1,1c0.4,0,0.6-0.1,0.8-0.1l0.1,0.4c-0.2,0.1-0.5,0.2-0.9,0.2c-0.9,0-1.4-0.6-1.4-1.4
		c0-0.9,0.5-1.5,1.3-1.5c0.9,0,1.2,0.8,1.2,1.3c0,0.1,0,0.2,0,0.2L74.1,7.1z M75.6,6.8c0-0.3-0.1-0.8-0.7-0.8
		c-0.5,0-0.7,0.5-0.8,0.8H75.6z" />
	</g>
	<g>
		<path d="M23.5,11.1L20,21.2h1.6l1-3.1H26l1.1,3.1h1.6l-3.5-10.1H23.5z M24.3,12.8c0.1,0.5,0.2,0.9,0.4,1.4l0.9,2.7H23l0.9-2.7
		C24,13.7,24.2,13.3,24.3,12.8z" />
		<path d="M33.1,13.7c-1,0-1.9,0.4-2.4,1.2l-0.1-1h-1.4l0,0.1c0,0.6,0.1,1.3,0.1,2.3v7.8h1.5v-3.6c0.5,0.6,1.2,0.9,2.1,0.9
		c0.9,0,1.7-0.4,2.3-1c0.7-0.7,1-1.7,1-2.9c0-1.1-0.3-2-0.9-2.7C34.8,14.1,34,13.7,33.1,13.7z M32.7,15c1.4,0,2,1.3,2,2.5
		c0,1.6-0.8,2.6-2,2.6c-0.9,0-1.6-0.6-1.8-1.4c0-0.1-0.1-0.3-0.1-0.5V17c0-0.1,0-0.2,0-0.4c0,0,0-0.1,0-0.1
		C31.1,15.6,31.8,15,32.7,15z" />
		<path d="M41,13.7c-1,0-1.9,0.4-2.4,1.2l-0.1-1h-1.4l0,0.1c0,0.6,0.1,1.3,0.1,2.3v7.8h1.5v-3.6c0.5,0.6,1.2,0.9,2.1,0.9
		c0.9,0,1.7-0.4,2.3-1c0.7-0.7,1-1.7,1-2.9c0-1.1-0.3-2-0.9-2.7C42.6,14.1,41.8,13.7,41,13.7z M40.6,15c1.4,0,2,1.3,2,2.5
		c0,1.6-0.8,2.6-2,2.6c-0.9,0-1.6-0.6-1.8-1.4c0-0.1-0.1-0.3-0.1-0.5V17c0-0.1,0-0.2,0-0.4c0,0,0-0.1,0-0.1C39,15.6,39.7,15,40.6,15
		z" />
		<path
			d="M50.8,15.4c-1.4-0.6-1.9-1-1.9-1.8c0-0.7,0.5-1.4,1.7-1.4c1,0,1.6,0.3,1.8,0.5l0.1,0.1l0.4-1.3l-0.1,0
		c-0.3-0.2-1-0.5-2.2-0.5c-2,0-3.3,1.2-3.3,2.8c0,1.3,0.9,2.3,2.7,2.9c1.3,0.5,1.8,1,1.8,1.8c0,1-0.7,1.6-1.9,1.6
		c-0.8,0-1.6-0.2-2.2-0.6l-0.1-0.1l-0.4,1.3l0.1,0.1c0.6,0.4,1.7,0.7,2.6,0.7c2.6,0,3.6-1.6,3.6-3C53.4,17,52.7,16.1,50.8,15.4z" />
		<path d="M56.2,12.1l-1.5,0.5v1.3h-1.1v1.2h1.1v3.7c0,0.9,0.2,1.5,0.5,1.9c0.3,0.4,0.9,0.6,1.5,0.6c0.6,0,1-0.1,1.2-0.2l0.1,0
		l-0.1-1.2l-0.1,0c-0.2,0.1-0.4,0.1-0.7,0.1c-0.6,0-0.8-0.4-0.8-1.3v-3.7H58v-1.2h-1.8V12.1z" />
		<path d="M61.8,13.7c-2.1,0-3.6,1.6-3.6,3.9c0,2.2,1.4,3.8,3.5,3.8h0c1.8,0,3.6-1.2,3.6-3.9c0-1.1-0.3-2-1-2.7
		C63.7,14.1,62.8,13.7,61.8,13.7z M61.8,14.9c1.4,0,2,1.3,2,2.6c0,1.5-0.9,2.6-2,2.6h0c-1.2,0-2-1.1-2-2.6
		C59.7,16.2,60.3,14.9,61.8,14.9z" />
		<path d="M70,13.8L70,13.8c-0.2-0.1-0.3-0.1-0.5-0.1c-0.8,0-1.5,0.5-1.9,1.2l0-1.1h-1.4l0,0.1c0,0.6,0.1,1.3,0.1,2.2l0,5h1.5v-3.9
		c0-0.2,0-0.4,0-0.6c0.2-0.9,0.8-1.5,1.6-1.5c0.2,0,0.3,0,0.4,0l0.2,0V13.8z" />
		<path d="M73.5,13.7c-2,0-3.5,1.6-3.5,4c0,2.2,1.4,3.7,3.6,3.7c1.2,0,2-0.3,2.4-0.5l0.1,0l-0.3-1.1l-0.1,0.1c-0.4,0.2-1,0.3-1.9,0.3
		c-0.7,0-2.2-0.2-2.3-2.2l4.9,0l0-0.1c0-0.2,0-0.4,0-0.6C76.5,15.6,75.7,13.7,73.5,13.7z M73.4,14.9c0.5,0,0.8,0.1,1.1,0.4
		c0.4,0.4,0.5,1.1,0.5,1.4h-3.5C71.7,15.8,72.2,14.9,73.4,14.9z" />
	</g>
</svg>