<?xml version="1.0" encoding="utf-8"?>
<!-- Generator: Adobe Illustrator 21.0.0, SVG Export Plug-In . SVG Version: 6.00 Build 0)  -->
<svg version="1.1" id="Layer_1" xmlns="http://www.w3.org/2000/svg" xmlns:xlink="http://www.w3.org/1999/xlink" x="0px" y="0px"
	 viewBox="0 0 200 200" style="enable-background:new 0 0 200 200;" xml:space="preserve">
<style type="text/css">
	.st0{fill:none;stroke:#606060;stroke-width:5.6135;stroke-linecap:round;stroke-linejoin:round;stroke-miterlimit:10;}
	.st1{fill:none;stroke:#606060;stroke-width:1.8712;stroke-linecap:round;stroke-linejoin:round;stroke-miterlimit:10;}
</style>
<g>
	<circle class="st0" cx="100" cy="100" r="81.8"/>
	<line class="st0" x1="100" y1="194.2" x2="100" y2="140.2"/>
	<line class="st0" x1="100" y1="59.8" x2="100" y2="5.8"/>
	<line class="st0" x1="194.2" y1="100" x2="140.2" y2="100"/>
	<line class="st0" x1="59.8" y1="100" x2="5.8" y2="100"/>
	<polyline class="st0" points="65.2,120 65.2,120 18.2,146.9 	"/>
	<line class="st0" x1="181.8" y1="53.1" x2="134.8" y2="80"/>
	<polyline class="st0" points="120,134.8 120,134.8 147.1,181.6 	"/>
	<line class="st0" x1="80" y1="65.2" x2="53.1" y2="18.2"/>
	<line class="st0" x1="80" y1="134.8" x2="52.9" y2="181.6"/>
	<line class="st0" x1="147.3" y1="18.2" x2="120" y2="65.2"/>
	<line class="st0" x1="181.8" y1="146.9" x2="134.8" y2="120"/>
	<line class="st0" x1="65.2" y1="80" x2="18.2" y2="53.1"/>
	<circle class="st0" cx="100" cy="100" r="94.2"/>
	<circle class="st0" cx="100" cy="100" r="40.2"/>
	<g>
		<g>
			<path class="st1" d="M90.8,41.8c3.2-0.6,5.3-3.6,4.7-6.8c-0.6-3.2-3.6-5.3-6.8-4.7c-3.2,0.6-5.3,3.6-4.7,6.8l2.6,14.2"/>
			<path class="st1" d="M78.3,44.6c-3.1,1-6.3-0.7-7.3-3.8c-1-3.1,0.7-6.3,3.8-7.3c3.1-1,6.3,0.7,7.3,3.8l4.3,13.7"/>
		</g>
		<g>
			<ellipse transform="matrix(0.2495 -0.9684 0.9684 0.2495 42.4924 145.2688)" class="st1" cx="115" cy="45.2" rx="7.5" ry="7.5"/>
			<path class="st1" d="M118.1,38.4c0,0,2.4,2.2,5.3-1.7c2.5-3.3,4.6-1.9,4.6-1.9"/>
			<path class="st1" d="M115.6,37.7c0,0-3.2,0.7-3.8-4c-0.6-4.1-3.1-3.9-3.1-3.9"/>
		</g>
		<g>
			<path class="st1" d="M144.9,42.2c0,2.2,1.8,5.5,4.9,8.5c3.1,3,6.5,4.7,8.7,4.5"/>
			<path class="st1" d="M143,71.3c0-2.2-1.8-5.5-4.9-8.5c-3.1-3-6.5-4.7-8.7-4.5"/>
			<line class="st1" x1="134.6" y1="59.8" x2="146.8" y2="47.1"/>
			<line class="st1" x1="141.2" y1="66.1" x2="153.4" y2="53.5"/>
		</g>
		<g>
			<path class="st1" d="M151.5,81.2c1.2-2.3,5-4.1,9.6-4.1c5.5,0,10,2.5,10,5.6"/>
			<circle class="st1" cx="167.1" cy="83.1" r="3.9"/>
			<path class="st1" d="M170.3,89.3c-1.2,2.3-5,4.1-9.6,4.1c-5.5,0-10-2.5-10-5.6"/>
			<circle class="st1" cx="154.7" cy="87.4" r="3.9"/>
		</g>
		<g>
			<path class="st1" d="M154.9,115.4c0,0-1.4-9,4.9-8.4c6.4,0.6,4.2,7.7,2,11c-1.7,2.5-3.2,7.4-0.3,8.7c2.8,1.3,4.2-1,4.6-3.6"/>
			
				<ellipse transform="matrix(8.841315e-02 -0.9961 0.9961 8.841315e-02 24.2532 257.2577)" class="st1" cx="152.7" cy="115.4" rx="2.2" ry="2.2"/>
		</g>
		<path class="st1" d="M76.3,150.8c0.4-1.1,1.6-1.6,2.8-1.2l0,0c1.2,0.4,1.9,1.6,1.5,2.7L77,163.4"/>
		<path class="st1" d="M80.7,152.2c0.4-1.1,1.9-1.5,3.5-1l0,0c1.6,0.5,2.6,1.8,2.2,2.9l-3.7,11.2"/>
		<path class="st1" d="M86.4,154.1c0.4-1.1,1.9-1.5,3.5-1l0,0c1.6,0.5,2.6,1.8,2.2,2.9l-3,9.1c-0.4,1.1,0.2,2.3,1.4,2.7l1.6,0.5"/>
		<g>
			<path class="st1" d="M138.2,132.3c0.7-0.9,2.2-0.9,3.2-0.1l0,0c1.1,0.9,1.3,2.3,0.6,3.2l-7.6,9.3"/>
			<path class="st1" d="M142,135.4c0.7-0.9,2.4-0.8,3.7,0.3l0,0c1.3,1.1,1.8,2.7,1.1,3.6l-7.6,9.3"/>
			<path class="st1" d="M146.8,139.3c0.7-0.9,2.4-0.8,3.7,0.3l0,0c1.3,1.1,1.8,2.7,1.1,3.6l-6.2,7.6c-0.8,0.9-0.6,2.3,0.3,3.1
				l1.4,1.1"/>
			<path class="st1" d="M151.9,142.6c0,0,8,8.9-12.3,8.2"/>
		</g>
		<g>
			<line class="st1" x1="51.5" y1="149.6" x2="64.4" y2="136.6"/>
			<polyline class="st1" points="59,136.6 64.4,136.6 64.4,142 			"/>
			<line class="st1" x1="54.2" y1="140.6" x2="60.3" y2="146.6"/>
		</g>
		<g>
			<path class="st1" d="M28.6,85.5l4.1-4.1c0.5-0.5,1.4-0.5,1.9,0l2.8,3c0.5,0.6,1.4,0.5,1.9,0l2.5-2.9c0.5-0.6,1.4-0.6,1.9,0
				l2.8,2.9c0.5,0.6,1.4,0.5,1.9,0l3.5-3.9"/>
			<path class="st1" d="M28.6,91.2l4.1-4.1c0.5-0.5,1.4-0.5,1.9,0l2.8,3c0.5,0.6,1.4,0.5,1.9,0l2.5-2.9c0.5-0.6,1.4-0.6,1.9,0
				l2.8,2.9c0.5,0.6,1.4,0.5,1.9,0l3.5-3.9"/>
		</g>
		<g>
			<path class="st1" d="M43.6,55.5c3.2-0.7,7.5,1,11,4.5c3.5,3.5,5.2,7.8,4.6,11"/>
			<path class="st1" d="M70.8,59.5c-3.2,0.7-7.5-1-11-4.5c-3.5-3.5-5.2-7.8-4.6-11"/>
			<line class="st1" x1="63" y1="51.7" x2="51.5" y2="63.3"/>
		</g>
		<g>
			<path class="st1" d="M39.8,122l-2.2-8.2c-0.5-1.8,0.6-3.7,2.4-4.2c1.8-0.5,3.7,0.6,4.2,2.4c0,0,1.2,7.9,6,6.8"/>
			<path class="st1" d="M30.2,116.6c-0.7-1.8,0.1-3.8,1.9-4.5c1.8-0.7,3.8,0.1,4.5,1.9l3.2,7.9"/>
			<ellipse transform="matrix(0.9474 -0.32 0.32 0.9474 -34.4666 21.8692)" class="st1" cx="49.3" cy="115.8" rx="3.1" ry="3.1"/>
			<path class="st1" d="M48.3,112.8c0,0-2.7,0.6-2,4c0.7,3.4-2.4,5.8-4.4,7.1"/>
		</g>
		<g>
			<line class="st1" x1="113.1" y1="162.3" x2="105.6" y2="164.6"/>
			<line class="st1" x1="128.2" y1="157.7" x2="120.7" y2="160"/>
			<line class="st1" x1="106.7" y1="168.2" x2="129.3" y2="161.3"/>
			<path class="st1" d="M120.7,160c0.6-1.2,0.8-2.7,0.4-4.1c-0.9-2.9-4-4.6-6.9-3.7c-2.9,0.9-4.6,4-3.7,6.9c0.4,1.4,1.4,2.5,2.6,3.2
				"/>
		</g>
	</g>
</g>
</svg>
