<!-- Generator: Adobe Illustrator 22.0.0, SVG Export Plug-In . SVG Version: 6.00 Build 0)  -->
<svg version="1.1" id="Layer_1" xmlns="http://www.w3.org/2000/svg" xmlns:xlink="http://www.w3.org/1999/xlink" x="0px"
	y="0px" viewBox="0 0 24 24" style="enable-background:new 0 0 24 24;" xml:space="preserve" width="24px"
	height="24px">
	<style type="text/css">
		.st0 {
			fill: url(#SVGID_5_);
		}

		.st1 {
			fill: url(#SVGID_6_);
		}

		.st2 {
			fill: url(#SVGID_7_);
		}

		.st3 {
			fill: #00E5E5;
		}

		.st4 {
			fill: url(#SVGID_8_);
		}

		.st5 {
			fill: url(#SVGID_9_);
		}

		.st6 {
			fill: url(#SVGID_10_);
		}

		.st7 {
			fill: url(#SVGID_11_);
		}

		.st8 {
			fill: url(#SVGID_12_);
		}

		.st9 {
			fill: url(#SVGID_14_);
		}

		.st10 {
			fill: url(#SVGID_15_);
		}

		.st11 {
			fill: url(#SVGID_16_);
		}

		.st12 {
			fill: url(#SVGID_17_);
		}

		.st13 {
			fill: url(#SVGID_18_);
		}

		.st14 {
			fill: url(#SVGID_20_);
		}

		.st15 {
			fill: url(#SVGID_21_);
		}

		.st16 {
			fill: url(#SVGID_22_);
		}

		.st17 {
			fill: url(#SVGID_23_);
		}

		.st18 {
			fill: url(#SVGID_24_);
		}

		.st19 {
			fill: url(#SVGID_25_);
		}

		.st20 {
			fill: url(#SVGID_26_);
		}

		.st21 {
			fill: url(#SVGID_27_);
		}

		.st22 {
			fill: #2C2C2C;
		}

		.st23 {
			fill: #FFFFFF;
		}

		.st24 {
			fill: none;
			stroke: #2C2C2C;
			stroke-miterlimit: 10;
		}

		.st25 {
			fill: none;
			stroke: #FFFFFF;
			stroke-width: 0.5;
			stroke-miterlimit: 10;
		}

		.st26 {
			fill: #FABB04;
		}

		.st27 {
			opacity: 0.37;
			fill: #2C2C2C;
		}

		.st28 {
			fill: none;
			stroke: #FFFFFF;
			stroke-width: 2;
			stroke-miterlimit: 10;
		}

		.st29 {
			opacity: 0.37;
			fill: none;
			stroke: #2C2C2C;
			stroke-width: 2;
			stroke-miterlimit: 10;
		}

		.st30 {
			fill: url(#SVGID_28_);
		}

		.st31 {
			fill: #252947;
		}

		.st32 {
			fill: url(#SVGID_29_);
		}

		.st33 {
			fill: url(#SVGID_30_);
		}

		.st34 {
			fill: #00E5B5;
		}

		.st35 {
			fill: #E8F0F6;
		}
	</style>
	<g>
		<circle class="st35" cx="12" cy="12" r="12" />
		<path class="st31" d="M14.3,7.3h1.3V5.1c-0.2,0-1-0.1-1.9-0.1c-1.9,0-3.2,1.2-3.2,3.3v2H8.4v2.5h2.1V19h2.6v-6.3h2l0.3-2.5h-2.3
		V8.5C13.1,7.8,13.3,7.3,14.3,7.3z" />
	</g>
	<g>
		<g>
			<defs>
				<rect id="SVGID_465_" x="-1160.6" y="-94" width="1091.1" height="134.9" />
			</defs>
			<clipPath id="SVGID_5_">
				<use xlink:href="#SVGID_465_" style="overflow:visible;" />
			</clipPath>
			<g style="opacity:0.3;clip-path:url(#SVGID_5_);">
				<g>
					<g>
						<g>
							<path class="st212" d="M-69.6,102.1c-108.2,0-196.1-88-196.1-196.1c0-108.1,88-196.1,196.1-196.1
							c108.1,0,196.1,88,196.1,196.1C126.5,14.1,38.6,102.1-69.6,102.1z M-69.6-285.9c-105.8,0-191.9,86.1-191.9,191.9
							c0,105.8,86.1,191.9,191.9,191.9C36.2,97.9,122.3,11.8,122.3-94C122.3-199.8,36.2-285.9-69.6-285.9z" />
						</g>
					</g>
					<g>
					</g>
					<g>
						<g>
						</g>
						<g>
						</g>
					</g>
					<g>
						<g>
						</g>
						<g>
						</g>
					</g>
					<g>
						<g>
						</g>
						<g>
						</g>
					</g>
				</g>
				<g>
					<g>
						<g>
							<path class="st212" d="M-69.6,12.8c-58.9,0-106.8-47.9-106.8-106.8c0-58.9,47.9-106.8,106.8-106.8
							c58.9,0,106.8,47.9,106.8,106.8C37.2-35.1-10.7,12.8-69.6,12.8z M-69.6-199.4C-127.7-199.4-175-152.1-175-94
							c0,58.1,47.3,105.4,105.4,105.4C-11.5,11.4,35.8-35.9,35.8-94C35.8-152.1-11.5-199.4-69.6-199.4z" />
						</g>
					</g>
					<g>
						<g>
							<path class="st212" d="M-69.6,13.1L-81.9-0.7L-97.3,9.4L-105.6-7l-17.5,5.8l-3.7-18.1l-18.4,1l1-18.4l-18.1-3.7l5.8-17.5
							l-16.5-8.3l10.1-15.4L-176.7-94l13.8-12.3l-10.1-15.4l16.5-8.3l-5.8-17.5l18.1-3.7l-1-18.4l18.4,1l3.7-18.1l17.5,5.8l8.3-16.5
							l15.4,10.1l12.3-13.8l12.3,13.8l15.4-10.1l8.3,16.5l17.5-5.8l3.7,18.1l18.4-1l-1,18.4l18.1,3.7l-5.8,17.5l16.5,8.3l-10.1,15.4
							L37.5-94L23.7-81.7l10.1,15.4L17.4-58l5.8,17.5L5.1-36.7l1,18.4l-18.4-1L-16-1.3L-33.6-7l-8.3,16.5L-57.3-0.7L-69.6,13.1z
							 M-81.7-2.4l12.1,13.5l12.1-13.5l15.1,9.9l8.1-16.2L-17-3l3.7-17.7l18.1,1l-1-18.1l17.7-3.7l-5.7-17.2l16.2-8.1L22-82L35.5-94
							L22-106.1l9.9-15.1l-16.2-8.2l5.7-17.2l-17.7-3.7l1-18.1l-18.1,1L-17-185l-17.2,5.7l-8.1-16.2l-15.1,9.9l-12.1-13.5
							l-12.1,13.5l-15.1-9.9l-8.1,16.2l-17.2-5.7l-3.7,17.7l-18.1-1l1,18.1l-17.7,3.7l5.7,17.2l-16.2,8.2l9.9,15.1L-174.7-94
							l13.5,12.1l-9.9,15.1l16.2,8.1l-5.7,17.2l17.7,3.7l-1,18.1l18.1-1l3.7,17.7l17.2-5.7l8.1,16.2L-81.7-2.4z" />
						</g>
					</g>
					<g>
					</g>
					<g>
					</g>
					<g>
						<g>
							<g>
								<g>
									<g>
										<path class="st212" d="M-17.1-3l0.7,0.2c0.6,0.2,15,4.5,21.9,16.4C12.4,25.5,9,40.2,8.8,40.8l-0.2,0.7l-0.7-0.2
										c-0.6-0.2-15-4.5-21.9-16.4c-6.9-11.9-3.4-26.6-3.3-27.2L-17.1-3z M7.6,39.7c0.6-3.1,2.4-15.4-3.3-25.4
										C-1.4,4.4-13-0.2-16-1.2c-0.6,3.1-2.4,15.4,3.3,25.4C-7,34.1,4.6,38.6,7.6,39.7z" />
									</g>
								</g>
								<g>
									<path class="st212" d="M5.5,13.6C12.4,25.5,9,40.2,8.8,40.8l-0.2,0.7l-0.7-0.2c-0.6-0.2-15-4.5-21.9-16.4
									c-5.9-10.3-4.2-22.6-3.5-26.2c-0.9,4.7-4.2,25.1,5.4,41.5c10.8,18.6,34,25.7,34.3,25.7l0.7,0.2l0.2-0.7
									c0.1-0.2,5.6-23.9-5.2-42.5C8.4,6.5-10.8-0.9-15.3-2.5C-11.9-1.3-0.4,3.3,5.5,13.6z" />
								</g>
							</g>
						</g>
						<g>
						</g>
					</g>
					<g>
						<g>
							<g>
								<g>
									<g>
										<path class="st212" d="M4.7-19.7l0.7,0c0.6,0,15.7,0.5,25.4,10.2C40.6,0.2,41,15.2,41,15.9l0,0.7l-0.7,0
										c-0.6,0-15.7-0.5-25.4-10.2C5.2-3.3,4.7-18.4,4.7-19L4.7-19.7z M39.6,15.1C39.3,12,37.9-0.4,29.8-8.5
										C21.7-16.6,9.4-18,6.2-18.2c0.2,3.2,1.6,15.5,9.7,23.6C24,13.5,36.4,14.9,39.6,15.1z" />
									</g>
								</g>
								<g>
									<path class="st212" d="M30.8-9.5C40.6,0.2,41,15.2,41,15.9l0,0.7l-0.7,0c-0.6,0-15.7-0.5-25.4-10.2C6.5-2,5-14.3,4.8-18
									c0.3,4.8,2.5,25.3,15.9,38.7c15.2,15.2,39.5,16,39.8,16l0.7,0l0-0.7c0-0.2-0.8-24.5-16-39.8C31.8-17.2,11.3-19.3,6.5-19.7
									C10.1-19.4,22.5-17.9,30.8-9.5z" />
								</g>
							</g>
						</g>
						<g>
						</g>
					</g>
					<g>
						<g>
							<g>
								<g>
									<path class="st212" d="M49.3-38.4c11.9,6.9,16.3,21.3,16.4,21.9l0.2,0.7l-0.7,0.2C64.6-15.5,50-12,38-18.9
									c-10.3-5.9-14.9-17.5-16.1-20.9c1.5,4.5,8.9,23.8,25.4,33.3C66,4.3,89.6-1.3,89.9-1.4l0.7-0.2l-0.2-0.7
									c-0.1-0.2-7.1-23.5-25.7-34.3c-16.4-9.5-36.8-6.3-41.5-5.4C26.7-42.6,39-44.3,49.3-38.4z" />
								</g>
							</g>
						</g>
						<g>
						</g>
					</g>
					<g>
					</g>
				</g>
			</g>
		</g>
	</g>
</svg>