<?xml version="1.0" encoding="utf-8"?>
<!-- Generator: Adobe Illustrator 21.0.0, SVG Export Plug-In . SVG Version: 6.00 Build 0)  -->
<svg version="1.1" id="Capa_1" xmlns="http://www.w3.org/2000/svg" xmlns:xlink="http://www.w3.org/1999/xlink" x="0px" y="0px"
	 viewBox="0 0 500 500" style="enable-background:new 0 0 500 500;" xml:space="preserve">
<style type="text/css">
	.st0{fill:#252947;}
	.st1{fill:#00E5E5;}
</style>
<rect x="-0.5" class="st0" width="501" height="500"/>
<path class="st1" d="M368.1,277.4c15.2-15.2,15.2-40.1,0-55.3l0.1-0.1l-2.3-2.3c0,0,0,0,0,0c0,0,0,0,0,0L194.2,48.1
	c-16.4-16.4-43.4-18.1-60.4-2.2c-17.5,16.5-17.8,44.1-0.9,61l120,120c12.7,12.7,12.7,33.2,0,45.9L134.2,391.5
	c-16.4,16.4-18.1,43.4-2.2,60.4c16.5,17.5,44.1,17.8,61,0.9l173-173c0,0,0,0,0,0c0,0,0,0,0,0l2.3-2.3L368.1,277.4z"/>
</svg>
