<!-- Generator: Adobe Illustrator 22.0.0, SVG Export Plug-In . SVG Version: 6.00 Build 0)  -->
<svg version="1.1" id="Layer_1" xmlns="http://www.w3.org/2000/svg" xmlns:xlink="http://www.w3.org/1999/xlink" x="0px"
	y="0px" viewBox="0 0 81.9 26.8" style="enable-background:new 0 0 81.9 26.8;" xml:space="preserve">
	<style type="text/css">
		.st0 {
			fill: url(#SVGID_5_);
		}

		.st1 {
			fill: url(#SVGID_6_);
		}

		.st2 {
			fill: url(#SVGID_7_);
		}

		.st3 {
			fill: #00E5E5;
		}

		.st4 {
			fill: url(#SVGID_8_);
		}

		.st5 {
			fill: url(#SVGID_9_);
		}

		.st6 {
			fill: url(#SVGID_10_);
		}

		.st7 {
			fill: url(#SVGID_11_);
		}

		.st8 {
			fill: url(#SVGID_12_);
		}

		.st9 {
			fill: url(#SVGID_14_);
		}

		.st10 {
			fill: url(#SVGID_15_);
		}

		.st11 {
			fill: url(#SVGID_16_);
		}

		.st12 {
			fill: url(#SVGID_17_);
		}

		.st13 {
			fill: url(#SVGID_18_);
		}

		.st14 {
			fill: url(#SVGID_20_);
		}

		.st15 {
			fill: url(#SVGID_21_);
		}

		.st16 {
			fill: url(#SVGID_22_);
		}

		.st17 {
			fill: url(#SVGID_23_);
		}

		.st18 {
			fill: url(#SVGID_24_);
		}

		.st19 {
			fill: url(#SVGID_25_);
		}

		.st20 {
			fill: url(#SVGID_26_);
		}

		.st21 {
			fill: url(#SVGID_27_);
		}

		.st22 {
			fill: #2C2C2C;
		}

		.st23 {
			fill: #FFFFFF;
		}

		.st24 {
			fill: none;
			stroke: #2C2C2C;
			stroke-miterlimit: 10;
		}

		.st25 {
			fill: none;
			stroke: #FFFFFF;
			stroke-width: 0.5;
			stroke-miterlimit: 10;
		}

		.st26 {
			fill: #FABB04;
		}

		.st27 {
			opacity: 0.37;
			fill: #2C2C2C;
		}

		.st28 {
			fill: none;
			stroke: #FFFFFF;
			stroke-width: 2;
			stroke-miterlimit: 10;
		}

		.st29 {
			opacity: 0.37;
			fill: none;
			stroke: #2C2C2C;
			stroke-width: 2;
			stroke-miterlimit: 10;
		}

		.st30 {
			fill: url(#SVGID_28_);
		}

		.st31 {
			fill: #252947;
		}

		.st32 {
			fill: url(#SVGID_29_);
		}

		.st33 {
			fill: url(#SVGID_30_);
		}

		.st34 {
			fill: #00E5B5;
		}

		.st35 {
			fill: #E8F0F6;
		}

		.st36 {
			fill: none;
			stroke: #606060;
			stroke-width: 0.25;
			stroke-miterlimit: 10;
		}

		.st37 {
			fill: url(#SVGID_31_);
		}

		.st38 {
			fill: url(#SVGID_32_);
		}

		.st39 {
			fill: url(#SVGID_33_);
		}

		.st40 {
			fill: url(#SVGID_34_);
		}

		.st41 {
			fill: url(#SVGID_35_);
		}

		.st42 {
			fill: url(#SVGID_36_);
		}

		.st43 {
			fill: url(#SVGID_37_);
		}

		.st44 {
			fill: url(#SVGID_38_);
		}

		.st45 {
			fill: url(#SVGID_39_);
		}

		.st46 {
			fill: url(#SVGID_40_);
		}

		.st47 {
			fill: url(#SVGID_41_);
		}

		.st48 {
			fill: url(#SVGID_42_);
		}

		.st49 {
			fill: url(#SVGID_43_);
		}

		.st50 {
			fill: url(#SVGID_44_);
		}

		.st51 {
			fill: url(#SVGID_45_);
		}

		.st52 {
			fill: url(#SVGID_46_);
		}

		.st53 {
			fill: url(#SVGID_47_);
		}

		.st54 {
			fill: url(#SVGID_48_);
		}

		.st55 {
			fill: url(#SVGID_49_);
		}

		.st56 {
			fill: url(#SVGID_50_);
		}

		.st57 {
			fill: url(#SVGID_51_);
		}

		.st58 {
			fill: url(#SVGID_52_);
		}

		.st59 {
			fill: #606060;
		}

		.st60 {
			fill: #999999;
		}

		.st61 {
			fill: url(#SVGID_53_);
		}

		.st62 {
			fill: url(#SVGID_54_);
		}

		.st63 {
			opacity: 0.5;
		}

		.st64 {
			fill: url(#SVGID_55_);
		}

		.st65 {
			fill: url(#SVGID_56_);
		}

		.st66 {
			fill: #A6A8AB;
		}

		.st67 {
			fill: #231F20;
		}

		.st68 {
			clip-path: url(#SVGID_57_);
			fill: url(#SVGID_58_);
		}

		.st69 {
			clip-path: url(#SVGID_57_);
			fill: url(#SVGID_59_);
		}

		.st70 {
			clip-path: url(#SVGID_57_);
			fill: url(#SVGID_60_);
		}

		.st71 {
			clip-path: url(#SVGID_57_);
			fill: url(#SVGID_61_);
		}

		.st72 {
			fill: #F9F9F9;
		}

		.st73 {
			clip-path: url(#SVGID_62_);
			fill: url(#SVGID_63_);
		}

		.st74 {
			clip-path: url(#SVGID_62_);
			fill: url(#SVGID_64_);
		}

		.st75 {
			clip-path: url(#SVGID_62_);
			fill: url(#SVGID_65_);
		}

		.st76 {
			clip-path: url(#SVGID_62_);
			fill: url(#SVGID_66_);
		}

		.st77 {
			clip-path: url(#SVGID_67_);
			fill: url(#SVGID_68_);
		}

		.st78 {
			clip-path: url(#SVGID_67_);
			fill: url(#SVGID_69_);
		}

		.st79 {
			clip-path: url(#SVGID_67_);
			fill: url(#SVGID_70_);
		}

		.st80 {
			clip-path: url(#SVGID_67_);
			fill: url(#SVGID_71_);
		}

		.st81 {
			clip-path: url(#SVGID_72_);
			fill: url(#SVGID_73_);
		}

		.st82 {
			clip-path: url(#SVGID_72_);
			fill: url(#SVGID_74_);
		}

		.st83 {
			clip-path: url(#SVGID_72_);
			fill: url(#SVGID_75_);
		}

		.st84 {
			clip-path: url(#SVGID_72_);
			fill: url(#SVGID_76_);
		}

		.st85 {
			fill: #383838;
		}

		.st86 {
			fill: #373C81;
		}

		.st87 {
			fill: url(#SVGID_135_);
		}

		.st88 {
			fill: url(#SVGID_136_);
		}

		.st89 {
			fill: url(#SVGID_137_);
		}

		.st90 {
			fill: url(#SVGID_138_);
		}

		.st91 {
			fill: url(#SVGID_139_);
		}

		.st92 {
			fill: url(#SVGID_140_);
		}

		.st93 {
			fill: url(#SVGID_141_);
		}

		.st94 {
			fill: url(#SVGID_142_);
		}

		.st95 {
			fill: url(#SVGID_143_);
		}

		.st96 {
			fill: url(#SVGID_144_);
		}

		.st97 {
			fill: url(#SVGID_145_);
		}

		.st98 {
			fill: url(#SVGID_146_);
		}

		.st99 {
			fill: url(#SVGID_147_);
		}

		.st100 {
			fill: url(#SVGID_148_);
		}

		.st101 {
			fill: url(#SVGID_149_);
		}

		.st102 {
			fill: url(#SVGID_150_);
		}

		.st103 {
			fill: url(#SVGID_151_);
		}

		.st104 {
			fill: url(#SVGID_152_);
		}

		.st105 {
			fill: url(#SVGID_153_);
		}

		.st106 {
			fill: url(#SVGID_154_);
		}

		.st107 {
			fill: url(#SVGID_155_);
		}

		.st108 {
			fill: url(#SVGID_156_);
		}

		.st109 {
			fill: url(#SVGID_157_);
		}

		.st110 {
			fill: url(#SVGID_158_);
		}

		.st111 {
			fill: url(#SVGID_159_);
		}

		.st112 {
			fill: url(#SVGID_160_);
		}

		.st113 {
			fill: url(#SVGID_161_);
		}

		.st114 {
			fill: url(#SVGID_162_);
		}

		.st115 {
			fill: url(#SVGID_163_);
		}

		.st116 {
			fill: url(#SVGID_164_);
		}

		.st117 {
			fill: url(#SVGID_165_);
		}

		.st118 {
			opacity: 0.22;
			fill: url(#SVGID_166_);
		}

		.st119 {
			opacity: 0.22;
			fill: url(#SVGID_167_);
		}

		.st120 {
			opacity: 0.22;
			fill: url(#SVGID_168_);
		}

		.st121 {
			fill: url(#SVGID_169_);
		}

		.st122 {
			fill: url(#SVGID_170_);
		}

		.st123 {
			fill: url(#SVGID_171_);
		}

		.st124 {
			fill: url(#SVGID_174_);
		}

		.st125 {
			fill: url(#SVGID_177_);
		}

		.st126 {
			fill: url(#SVGID_180_);
		}

		.st127 {
			fill: url(#SVGID_183_);
		}

		.st128 {
			fill: url(#SVGID_184_);
		}

		.st129 {
			fill: url(#SVGID_185_);
		}

		.st130 {
			fill: url(#SVGID_186_);
		}

		.st131 {
			fill: url(#SVGID_187_);
		}

		.st132 {
			fill: url(#SVGID_188_);
		}

		.st133 {
			fill: url(#SVGID_189_);
		}

		.st134 {
			fill: url(#SVGID_190_);
		}

		.st135 {
			fill: #474B63;
		}

		.st136 {
			fill: url(#SVGID_191_);
		}

		.st137 {
			fill: url(#SVGID_192_);
		}

		.st138 {
			fill: url(#SVGID_193_);
		}

		.st139 {
			fill: url(#SVGID_194_);
		}

		.st140 {
			fill: url(#SVGID_197_);
		}

		.st141 {
			fill: url(#SVGID_198_);
		}

		.st142 {
			fill: url(#SVGID_199_);
		}

		.st143 {
			fill: url(#SVGID_200_);
		}

		.st144 {
			fill: url(#SVGID_201_);
		}

		.st145 {
			fill: url(#SVGID_202_);
		}

		.st146 {
			fill: url(#SVGID_203_);
		}

		.st147 {
			fill: url(#SVGID_206_);
		}

		.st148 {
			fill: url(#SVGID_207_);
		}

		.st149 {
			fill: url(#SVGID_208_);
		}

		.st150 {
			fill: url(#SVGID_209_);
		}

		.st151 {
			fill: url(#SVGID_210_);
		}

		.st152 {
			fill: url(#SVGID_211_);
		}

		.st153 {
			fill: url(#SVGID_212_);
		}

		.st154 {
			fill: url(#SVGID_213_);
		}

		.st155 {
			fill: url(#SVGID_214_);
		}

		.st156 {
			fill: url(#SVGID_215_);
		}

		.st157 {
			fill: url(#SVGID_218_);
		}

		.st158 {
			fill: url(#SVGID_219_);
		}

		.st159 {
			fill: url(#SVGID_220_);
		}

		.st160 {
			fill: url(#SVGID_221_);
		}

		.st161 {
			fill: url(#SVGID_222_);
		}

		.st162 {
			fill: url(#SVGID_223_);
		}

		.st163 {
			fill: url(#SVGID_224_);
		}

		.st164 {
			fill: url(#SVGID_227_);
		}

		.st165 {
			fill: url(#SVGID_228_);
		}

		.st166 {
			fill: url(#SVGID_229_);
		}

		.st167 {
			fill: url(#SVGID_230_);
		}

		.st168 {
			fill: url(#SVGID_231_);
		}

		.st169 {
			fill: url(#SVGID_232_);
		}

		.st170 {
			fill: url(#SVGID_233_);
		}

		.st171 {
			fill: url(#SVGID_234_);
		}

		.st172 {
			fill: url(#SVGID_237_);
		}

		.st173 {
			fill: url(#SVGID_238_);
		}

		.st174 {
			fill: url(#SVGID_239_);
		}

		.st175 {
			fill: url(#SVGID_240_);
		}

		.st176 {
			fill: url(#SVGID_241_);
		}

		.st177 {
			fill: url(#SVGID_242_);
		}

		.st178 {
			fill: url(#SVGID_243_);
		}

		.st179 {
			fill: url(#SVGID_246_);
		}

		.st180 {
			fill: url(#SVGID_247_);
		}

		.st181 {
			fill: url(#SVGID_248_);
		}

		.st182 {
			fill: url(#SVGID_249_);
		}

		.st183 {
			fill: url(#SVGID_250_);
		}

		.st184 {
			fill: url(#SVGID_251_);
		}

		.st185 {
			fill: url(#SVGID_252_);
		}

		.st186 {
			fill: url(#SVGID_253_);
		}

		.st187 {
			fill: url(#SVGID_254_);
		}

		.st188 {
			fill: url(#SVGID_255_);
		}

		.st189 {
			fill: url(#SVGID_258_);
		}

		.st190 {
			fill: url(#SVGID_259_);
		}

		.st191 {
			fill: url(#SVGID_260_);
		}

		.st192 {
			fill: url(#SVGID_261_);
		}

		.st193 {
			fill: url(#SVGID_262_);
		}

		.st194 {
			fill: url(#SVGID_263_);
		}

		.st195 {
			fill: url(#SVGID_264_);
		}

		.st196 {
			fill: url(#SVGID_267_);
		}

		.st197 {
			clip-path: url(#SVGID_268_);
			fill: url(#SVGID_269_);
		}

		.st198 {
			clip-path: url(#SVGID_268_);
			fill: url(#SVGID_270_);
		}

		.st199 {
			clip-path: url(#SVGID_268_);
			fill: url(#SVGID_271_);
		}

		.st200 {
			clip-path: url(#SVGID_268_);
			fill: url(#SVGID_272_);
		}

		.st201 {
			fill: url(#SVGID_273_);
		}

		.st202 {
			fill: url(#SVGID_278_);
		}

		.st203 {
			fill: url(#SVGID_279_);
		}

		.st204 {
			fill: url(#SVGID_280_);
		}

		.st205 {
			fill: #E7E7E7;
		}

		.st206 {
			fill: #FFFFFF;
			stroke: #A8A8A8;
			stroke-miterlimit: 10;
		}

		.st207 {
			fill: none;
			stroke: #A8A8A8;
			stroke-miterlimit: 10;
		}

		.st208 {
			fill: url(#SVGID_281_);
		}

		.st209 {
			opacity: 0.22;
			fill: url(#SVGID_282_);
		}

		.st210 {
			fill-rule: evenodd;
			clip-rule: evenodd;
			fill: url(#SVGID_283_);
		}

		.st211 {
			opacity: 0.3;
			clip-path: url(#SVGID_285_);
		}

		.st212 {
			fill: #D21D72;
		}

		.st213 {
			opacity: 0.7;
			clip-path: url(#SVGID_287_);
		}

		.st214 {
			fill: url(#SVGID_288_);
		}

		.st215 {
			opacity: 0.1;
		}

		.st216 {
			fill: url(#SVGID_289_);
		}

		.st217 {
			opacity: 0.3;
		}

		.st218 {
			fill: url(#SVGID_290_);
		}

		.st219 {
			opacity: 0.4;
		}

		.st220 {
			fill: url(#SVGID_291_);
		}

		.st221 {
			opacity: 0.6;
		}

		.st222 {
			fill: url(#SVGID_292_);
		}

		.st223 {
			fill: url(#SVGID_293_);
		}

		.st224 {
			fill: url(#SVGID_294_);
		}

		.st225 {
			fill: url(#SVGID_295_);
		}

		.st226 {
			fill: url(#SVGID_296_);
		}

		.st227 {
			fill: url(#SVGID_297_);
		}

		.st228 {
			opacity: 0.8;
		}

		.st229 {
			fill: url(#SVGID_298_);
		}

		.st230 {
			fill: url(#SVGID_299_);
		}

		.st231 {
			fill: url(#SVGID_300_);
		}

		.st232 {
			fill: url(#SVGID_301_);
		}

		.st233 {
			fill: url(#SVGID_302_);
		}

		.st234 {
			fill: url(#SVGID_303_);
		}

		.st235 {
			fill: url(#SVGID_304_);
		}

		.st236 {
			fill: url(#SVGID_305_);
		}

		.st237 {
			fill: url(#SVGID_306_);
		}

		.st238 {
			fill: url(#SVGID_307_);
		}

		.st239 {
			fill: url(#SVGID_308_);
		}

		.st240 {
			fill: url(#SVGID_309_);
		}

		.st241 {
			fill: url(#SVGID_310_);
		}

		.st242 {
			fill: url(#SVGID_311_);
		}

		.st243 {
			fill: url(#SVGID_312_);
		}

		.st244 {
			fill: url(#SVGID_313_);
		}

		.st245 {
			fill: url(#SVGID_314_);
		}

		.st246 {
			fill: url(#SVGID_315_);
		}

		.st247 {
			fill: url(#SVGID_316_);
		}

		.st248 {
			fill: url(#SVGID_317_);
		}

		.st249 {
			fill: url(#SVGID_318_);
		}

		.st250 {
			fill: url(#SVGID_319_);
		}

		.st251 {
			fill: url(#SVGID_320_);
		}

		.st252 {
			fill: url(#SVGID_321_);
		}

		.st253 {
			fill: url(#SVGID_322_);
		}

		.st254 {
			fill: url(#SVGID_323_);
		}

		.st255 {
			fill: url(#SVGID_324_);
		}

		.st256 {
			clip-path: url(#SVGID_326_);
		}

		.st257 {
			fill: url(#SVGID_327_);
		}

		.st258 {
			fill: url(#SVGID_328_);
		}

		.st259 {
			fill: url(#SVGID_329_);
		}

		.st260 {
			fill: url(#SVGID_330_);
		}

		.st261 {
			fill: url(#SVGID_331_);
		}

		.st262 {
			fill: url(#SVGID_332_);
		}

		.st263 {
			opacity: 0.3;
			fill: #430148;
		}

		.st264 {
			opacity: 0.3;
			fill: #FFFFFF;
		}

		.st265 {
			opacity: 0.5;
			fill: #FFFFFF;
		}

		.st266 {
			fill: url(#SVGID_333_);
		}

		.st267 {
			fill: url(#SVGID_334_);
		}

		.st268 {
			fill: url(#SVGID_335_);
		}

		.st269 {
			fill: #63156B;
		}

		.st270 {
			fill: url(#SVGID_336_);
		}

		.st271 {
			fill: url(#SVGID_337_);
		}

		.st272 {
			fill: url(#SVGID_338_);
		}

		.st273 {
			fill: url(#SVGID_339_);
		}

		.st274 {
			fill: url(#SVGID_340_);
		}

		.st275 {
			fill: url(#SVGID_341_);
		}

		.st276 {
			fill: url(#SVGID_342_);
		}

		.st277 {
			fill: url(#SVGID_343_);
		}

		.st278 {
			fill: url(#SVGID_344_);
		}

		.st279 {
			filter: url(#Adobe_OpacityMaskFilter);
		}

		.st280 {
			fill: url(#SVGID_346_);
		}

		.st281 {
			opacity: 0.4;
			mask: url(#SVGID_345_);
		}

		.st282 {
			fill: url(#SVGID_347_);
		}

		.st283 {
			fill: url(#SVGID_348_);
		}

		.st284 {
			fill: url(#SVGID_349_);
		}

		.st285 {
			fill: url(#SVGID_350_);
		}

		.st286 {
			fill: url(#SVGID_351_);
		}

		.st287 {
			fill: url(#SVGID_352_);
		}

		.st288 {
			fill: url(#SVGID_353_);
		}

		.st289 {
			fill: url(#SVGID_354_);
		}

		.st290 {
			fill: url(#SVGID_355_);
		}

		.st291 {
			fill: url(#SVGID_356_);
		}

		.st292 {
			fill: url(#SVGID_357_);
		}

		.st293 {
			fill: url(#SVGID_358_);
		}

		.st294 {
			fill: url(#SVGID_359_);
		}

		.st295 {
			fill: url(#SVGID_360_);
		}

		.st296 {
			fill: url(#SVGID_361_);
		}

		.st297 {
			fill: url(#SVGID_362_);
		}

		.st298 {
			fill: url(#SVGID_363_);
		}

		.st299 {
			fill: url(#SVGID_364_);
		}

		.st300 {
			clip-path: url(#SVGID_366_);
		}

		.st301 {
			fill: url(#SVGID_367_);
		}

		.st302 {
			fill: url(#SVGID_368_);
		}

		.st303 {
			fill: url(#SVGID_369_);
		}

		.st304 {
			fill: url(#SVGID_370_);
		}

		.st305 {
			fill: url(#SVGID_371_);
		}

		.st306 {
			fill: url(#SVGID_372_);
		}

		.st307 {
			fill: url(#SVGID_373_);
		}

		.st308 {
			fill: url(#SVGID_374_);
		}

		.st309 {
			fill: url(#SVGID_375_);
		}

		.st310 {
			fill: url(#SVGID_376_);
		}

		.st311 {
			fill: url(#SVGID_377_);
		}

		.st312 {
			fill: url(#SVGID_378_);
		}

		.st313 {
			fill: url(#SVGID_379_);
		}

		.st314 {
			fill: url(#SVGID_380_);
		}

		.st315 {
			fill: url(#SVGID_381_);
		}

		.st316 {
			fill: url(#SVGID_382_);
		}

		.st317 {
			fill: url(#SVGID_383_);
		}

		.st318 {
			fill: url(#SVGID_384_);
		}

		.st319 {
			fill: url(#SVGID_385_);
		}

		.st320 {
			fill: url(#SVGID_386_);
		}

		.st321 {
			fill: url(#SVGID_387_);
		}

		.st322 {
			fill: url(#SVGID_388_);
		}

		.st323 {
			fill: url(#SVGID_389_);
		}

		.st324 {
			fill: url(#SVGID_390_);
		}

		.st325 {
			fill: url(#SVGID_391_);
		}

		.st326 {
			fill: url(#SVGID_392_);
		}

		.st327 {
			fill: url(#SVGID_393_);
		}

		.st328 {
			fill: url(#SVGID_394_);
		}

		.st329 {
			fill: url(#SVGID_395_);
		}

		.st330 {
			fill: url(#SVGID_396_);
		}

		.st331 {
			fill: url(#SVGID_397_);
		}

		.st332 {
			fill: url(#SVGID_398_);
		}

		.st333 {
			fill: url(#SVGID_399_);
		}

		.st334 {
			fill: url(#SVGID_400_);
		}

		.st335 {
			fill: url(#SVGID_401_);
		}

		.st336 {
			fill: url(#SVGID_402_);
		}

		.st337 {
			fill: url(#SVGID_403_);
		}

		.st338 {
			fill: url(#SVGID_404_);
		}

		.st339 {
			fill: url(#SVGID_405_);
		}

		.st340 {
			fill: url(#SVGID_406_);
		}

		.st341 {
			fill: url(#SVGID_407_);
		}

		.st342 {
			fill: url(#SVGID_408_);
		}

		.st343 {
			fill: url(#SVGID_409_);
		}

		.st344 {
			fill: url(#SVGID_410_);
		}

		.st345 {
			fill: url(#SVGID_411_);
		}

		.st346 {
			fill: url(#SVGID_412_);
		}

		.st347 {
			fill: url(#SVGID_413_);
		}

		.st348 {
			fill: url(#SVGID_414_);
		}

		.st349 {
			fill: url(#SVGID_415_);
		}

		.st350 {
			fill: url(#SVGID_416_);
		}

		.st351 {
			fill: url(#SVGID_417_);
		}

		.st352 {
			fill: url(#SVGID_418_);
		}

		.st353 {
			fill: url(#SVGID_419_);
		}

		.st354 {
			fill: url(#SVGID_420_);
		}

		.st355 {
			fill: url(#SVGID_421_);
		}

		.st356 {
			fill: url(#SVGID_422_);
		}

		.st357 {
			fill: url(#SVGID_423_);
		}

		.st358 {
			fill: url(#SVGID_424_);
		}

		.st359 {
			fill: url(#SVGID_425_);
		}

		.st360 {
			fill: url(#SVGID_426_);
		}

		.st361 {
			fill: url(#SVGID_427_);
		}

		.st362 {
			fill: url(#SVGID_428_);
		}

		.st363 {
			fill: url(#SVGID_429_);
		}

		.st364 {
			fill: url(#SVGID_430_);
		}

		.st365 {
			fill: url(#SVGID_431_);
		}

		.st366 {
			fill: url(#SVGID_432_);
		}

		.st367 {
			fill: url(#SVGID_433_);
		}

		.st368 {
			fill: url(#SVGID_434_);
		}

		.st369 {
			fill: url(#SVGID_435_);
		}

		.st370 {
			fill: url(#SVGID_436_);
		}

		.st371 {
			fill: url(#SVGID_437_);
		}

		.st372 {
			fill: url(#SVGID_438_);
		}

		.st373 {
			fill: url(#SVGID_439_);
		}

		.st374 {
			fill: url(#SVGID_440_);
		}

		.st375 {
			fill: url(#SVGID_441_);
		}

		.st376 {
			fill: url(#SVGID_442_);
		}

		.st377 {
			fill: url(#SVGID_443_);
		}

		.st378 {
			fill: url(#SVGID_444_);
		}

		.st379 {
			fill: url(#SVGID_445_);
		}

		.st380 {
			fill: url(#SVGID_446_);
		}

		.st381 {
			fill: url(#SVGID_447_);
		}

		.st382 {
			fill: url(#SVGID_448_);
		}

		.st383 {
			fill: url(#SVGID_449_);
		}

		.st384 {
			fill: url(#SVGID_450_);
		}

		.st385 {
			fill: url(#SVGID_451_);
		}

		.st386 {
			fill: url(#SVGID_452_);
		}

		.st387 {
			fill: url(#SVGID_453_);
		}

		.st388 {
			fill: url(#SVGID_454_);
		}

		.st389 {
			fill: url(#SVGID_455_);
		}

		.st390 {
			fill: url(#SVGID_456_);
		}

		.st391 {
			fill: url(#SVGID_457_);
		}

		.st392 {
			fill: url(#SVGID_458_);
		}

		.st393 {
			fill: url(#SVGID_459_);
		}

		.st394 {
			fill: url(#SVGID_460_);
		}

		.st395 {
			fill: url(#SVGID_461_);
		}

		.st396 {
			fill: url(#SVGID_462_);
		}

		.st397 {
			fill: url(#SVGID_463_);
		}

		.st398 {
			clip-path: url(#SVGID_464_);
			fill: url(#SVGID_465_);
		}

		.st399 {
			clip-path: url(#SVGID_464_);
			fill: url(#SVGID_466_);
		}

		.st400 {
			clip-path: url(#SVGID_464_);
			fill: url(#SVGID_467_);
		}

		.st401 {
			clip-path: url(#SVGID_464_);
			fill: url(#SVGID_468_);
		}

		.st402 {
			fill: url(#SVGID_469_);
		}

		.st403 {
			fill: url(#SVGID_470_);
		}

		.st404 {
			opacity: 0.22;
			fill: url(#SVGID_471_);
		}

		.st405 {
			opacity: 0.22;
			fill: url(#SVGID_472_);
		}

		.st406 {
			fill: url(#SVGID_473_);
		}

		.st407 {
			opacity: 0.22;
			fill: url(#SVGID_474_);
		}

		.st408 {
			opacity: 0.22;
			fill: url(#SVGID_475_);
		}

		.st409 {
			opacity: 0.67;
		}

		.st410 {
			fill: url(#SVGID_476_);
		}

		.st411 {
			fill: url(#SVGID_477_);
		}

		.st412 {
			fill: url(#SVGID_478_);
		}

		.st413 {
			fill: url(#SVGID_479_);
		}

		.st414 {
			fill: url(#SVGID_480_);
		}

		.st415 {
			fill: url(#SVGID_481_);
		}

		.st416 {
			fill: url(#SVGID_482_);
		}

		.st417 {
			fill: url(#SVGID_485_);
		}

		.st418 {
			fill: url(#SVGID_486_);
		}

		.st419 {
			fill: url(#SVGID_487_);
		}

		.st420 {
			fill: url(#SVGID_488_);
		}

		.st421 {
			fill: url(#SVGID_489_);
		}

		.st422 {
			fill: url(#SVGID_490_);
		}

		.st423 {
			fill: url(#SVGID_491_);
		}

		.st424 {
			fill: url(#SVGID_494_);
		}

		.st425 {
			fill: url(#SVGID_495_);
		}

		.st426 {
			fill: url(#SVGID_496_);
		}

		.st427 {
			fill: url(#SVGID_497_);
		}

		.st428 {
			fill: url(#SVGID_498_);
		}

		.st429 {
			fill: url(#SVGID_499_);
		}

		.st430 {
			fill: url(#SVGID_500_);
		}

		.st431 {
			fill: url(#SVGID_501_);
		}

		.st432 {
			fill: url(#SVGID_502_);
		}

		.st433 {
			fill: url(#SVGID_503_);
		}

		.st434 {
			fill: url(#SVGID_506_);
		}

		.st435 {
			fill: url(#SVGID_507_);
		}

		.st436 {
			fill: url(#SVGID_508_);
		}

		.st437 {
			fill: url(#SVGID_509_);
		}

		.st438 {
			fill: url(#SVGID_510_);
		}

		.st439 {
			fill: url(#SVGID_511_);
		}

		.st440 {
			fill: url(#SVGID_512_);
		}

		.st441 {
			fill: url(#SVGID_513_);
		}

		.st442 {
			fill: url(#SVGID_516_);
		}

		.st443 {
			fill: url(#SVGID_517_);
		}

		.st444 {
			fill: url(#SVGID_518_);
		}

		.st445 {
			fill: url(#SVGID_519_);
		}

		.st446 {
			fill: url(#SVGID_520_);
		}

		.st447 {
			fill: url(#SVGID_521_);
		}

		.st448 {
			fill: url(#SVGID_522_);
		}

		.st449 {
			fill: url(#SVGID_525_);
		}

		.st450 {
			fill: url(#SVGID_526_);
		}

		.st451 {
			fill: url(#SVGID_527_);
		}

		.st452 {
			fill: url(#SVGID_528_);
		}

		.st453 {
			fill: url(#SVGID_529_);
		}

		.st454 {
			fill: url(#SVGID_530_);
		}

		.st455 {
			fill: url(#SVGID_531_);
		}

		.st456 {
			fill: url(#SVGID_534_);
		}

		.st457 {
			fill: url(#SVGID_535_);
		}

		.st458 {
			fill: url(#SVGID_536_);
		}

		.st459 {
			fill: url(#SVGID_537_);
		}

		.st460 {
			fill: url(#SVGID_538_);
		}

		.st461 {
			fill: url(#SVGID_539_);
		}

		.st462 {
			fill: url(#SVGID_540_);
		}

		.st463 {
			fill: url(#SVGID_541_);
		}

		.st464 {
			fill: url(#SVGID_542_);
		}

		.st465 {
			fill: url(#SVGID_543_);
		}

		.st466 {
			fill: url(#SVGID_546_);
		}

		.st467 {
			fill: url(#SVGID_547_);
		}

		.st468 {
			fill: url(#SVGID_548_);
		}

		.st469 {
			fill: url(#SVGID_549_);
		}

		.st470 {
			fill: url(#SVGID_550_);
		}

		.st471 {
			fill: url(#SVGID_551_);
		}

		.st472 {
			fill: url(#SVGID_552_);
		}

		.st473 {
			fill: url(#SVGID_553_);
		}

		.st474 {
			opacity: 0.22;
			fill: url(#SVGID_556_);
		}

		.st475 {
			fill: none;
			stroke: #00E5E5;
			stroke-miterlimit: 10;
		}

		.st476 {
			opacity: 0.22;
			fill: url(#SVGID_557_);
		}

		.st477 {
			opacity: 0.22;
			fill: url(#SVGID_558_);
		}

		.st478 {
			opacity: 0.22;
			fill: url(#SVGID_559_);
		}

		.st479 {
			opacity: 0.22;
			fill: url(#SVGID_560_);
		}

		.st480 {
			fill: url(#SVGID_561_);
		}

		.st481 {
			fill: url(#SVGID_562_);
		}

		.st482 {
			fill: url(#SVGID_563_);
		}

		.st483 {
			fill: url(#SVGID_564_);
		}

		.st484 {
			fill: url(#SVGID_565_);
		}

		.st485 {
			fill: url(#SVGID_566_);
		}

		.st486 {
			fill: url(#SVGID_567_);
		}

		.st487 {
			fill: url(#SVGID_568_);
		}

		.st488 {
			fill: url(#SVGID_569_);
		}

		.st489 {
			fill: url(#SVGID_570_);
		}

		.st490 {
			opacity: 0.22;
			fill: url(#SVGID_571_);
		}

		.st491 {
			fill: url(#SVGID_572_);
		}

		.st492 {
			fill: url(#SVGID_573_);
		}

		.st493 {
			fill: url(#SVGID_574_);
		}

		.st494 {
			fill: url(#SVGID_575_);
		}

		.st495 {
			fill: url(#SVGID_576_);
		}

		.st496 {
			fill: url(#SVGID_577_);
		}

		.st497 {
			fill: url(#SVGID_578_);
		}

		.st498 {
			fill: url(#SVGID_579_);
		}

		.st499 {
			fill: url(#SVGID_580_);
		}

		.st500 {
			fill: url(#SVGID_581_);
		}

		.st501 {
			fill: url(#SVGID_582_);
		}

		.st502 {
			fill: url(#SVGID_583_);
		}

		.st503 {
			fill: url(#SVGID_584_);
		}

		.st504 {
			fill: url(#SVGID_585_);
		}

		.st505 {
			fill: url(#SVGID_586_);
		}

		.st506 {
			fill: url(#SVGID_587_);
		}

		.st507 {
			fill: url(#SVGID_588_);
		}

		.st508 {
			fill: url(#SVGID_589_);
		}

		.st509 {
			fill: url(#SVGID_590_);
		}

		.st510 {
			fill: url(#SVGID_591_);
		}

		.st511 {
			fill: url(#SVGID_592_);
		}

		.st512 {
			fill: url(#SVGID_595_);
		}

		.st513 {
			fill: url(#SVGID_596_);
		}

		.st514 {
			fill: url(#SVGID_597_);
		}

		.st515 {
			fill: url(#SVGID_598_);
		}

		.st516 {
			fill: url(#SVGID_599_);
		}

		.st517 {
			fill: url(#SVGID_600_);
		}

		.st518 {
			fill: url(#SVGID_601_);
		}

		.st519 {
			fill: url(#SVGID_604_);
		}

		.st520 {
			fill: url(#SVGID_605_);
		}

		.st521 {
			fill: url(#SVGID_606_);
		}

		.st522 {
			fill: url(#SVGID_607_);
		}

		.st523 {
			fill: url(#SVGID_608_);
		}

		.st524 {
			fill: url(#SVGID_609_);
		}

		.st525 {
			fill: url(#SVGID_610_);
		}

		.st526 {
			fill: url(#SVGID_611_);
		}

		.st527 {
			fill: url(#SVGID_612_);
		}

		.st528 {
			fill: url(#SVGID_613_);
		}

		.st529 {
			fill: url(#SVGID_616_);
		}

		.st530 {
			fill: url(#SVGID_617_);
		}

		.st531 {
			fill: url(#SVGID_618_);
		}

		.st532 {
			fill: url(#SVGID_619_);
		}

		.st533 {
			fill: url(#SVGID_620_);
		}

		.st534 {
			fill: url(#SVGID_621_);
		}

		.st535 {
			fill: url(#SVGID_622_);
		}

		.st536 {
			fill: url(#SVGID_625_);
		}

		.st537 {
			fill: url(#SVGID_626_);
		}

		.st538 {
			fill: url(#SVGID_627_);
		}

		.st539 {
			fill: url(#SVGID_628_);
		}

		.st540 {
			fill: url(#SVGID_629_);
		}

		.st541 {
			fill: url(#SVGID_630_);
		}

		.st542 {
			fill: url(#SVGID_631_);
		}

		.st543 {
			fill: url(#SVGID_632_);
		}

		.st544 {
			fill: url(#SVGID_633_);
		}

		.st545 {
			fill: url(#SVGID_634_);
		}

		.st546 {
			fill: url(#SVGID_635_);
		}

		.st547 {
			fill: url(#SVGID_638_);
		}

		.st548 {
			fill: url(#SVGID_639_);
		}

		.st549 {
			fill: url(#SVGID_640_);
		}

		.st550 {
			fill: url(#SVGID_641_);
		}

		.st551 {
			fill: url(#SVGID_642_);
		}

		.st552 {
			fill: url(#SVGID_643_);
		}

		.st553 {
			fill: url(#SVGID_644_);
		}

		.st554 {
			fill: url(#SVGID_647_);
		}

		.st555 {
			fill: url(#SVGID_648_);
		}

		.st556 {
			fill: url(#SVGID_649_);
		}

		.st557 {
			fill: url(#SVGID_650_);
		}

		.st558 {
			fill: url(#SVGID_651_);
		}

		.st559 {
			fill: url(#SVGID_652_);
		}

		.st560 {
			fill: url(#SVGID_653_);
		}

		.st561 {
			fill: url(#SVGID_654_);
		}

		.st562 {
			fill: url(#SVGID_655_);
		}

		.st563 {
			fill: url(#SVGID_656_);
		}

		.st564 {
			fill: url(#SVGID_659_);
		}

		.st565 {
			fill: url(#SVGID_660_);
		}

		.st566 {
			fill: url(#SVGID_661_);
		}

		.st567 {
			fill: url(#SVGID_662_);
		}

		.st568 {
			fill: url(#SVGID_663_);
		}

		.st569 {
			fill: url(#SVGID_664_);
		}

		.st570 {
			fill: url(#SVGID_665_);
		}

		.st571 {
			fill: url(#SVGID_668_);
		}

		.st572 {
			fill: url(#SVGID_669_);
		}

		.st573 {
			fill: url(#SVGID_670_);
		}

		.st574 {
			fill: url(#SVGID_671_);
		}

		.st575 {
			fill: url(#SVGID_672_);
		}

		.st576 {
			fill: url(#SVGID_673_);
		}

		.st577 {
			fill: url(#SVGID_674_);
		}

		.st578 {
			fill: url(#SVGID_675_);
		}

		.st579 {
			fill: url(#SVGID_676_);
		}

		.st580 {
			opacity: 0.22;
			fill: url(#SVGID_681_);
		}

		.st581 {
			opacity: 0.22;
			fill: url(#SVGID_682_);
		}

		.st582 {
			opacity: 0.22;
			fill: url(#SVGID_683_);
		}

		.st583 {
			opacity: 0.22;
			fill: url(#SVGID_684_);
		}

		.st584 {
			fill: #AFAFAF;
		}

		.st585 {
			fill: url(#SVGID_697_);
		}

		.st586 {
			opacity: 0.22;
			fill: url(#SVGID_698_);
		}

		.st587 {
			fill: url(#SVGID_699_);
		}

		.st588 {
			fill: url(#SVGID_700_);
		}

		.st589 {
			fill: url(#SVGID_701_);
		}

		.st590 {
			fill: url(#SVGID_702_);
		}

		.st591 {
			fill: url(#SVGID_703_);
		}

		.st592 {
			fill: url(#SVGID_704_);
		}

		.st593 {
			fill: url(#SVGID_705_);
		}

		.st594 {
			fill: url(#SVGID_706_);
		}

		.st595 {
			fill: url(#SVGID_707_);
		}

		.st596 {
			fill: url(#SVGID_708_);
		}

		.st597 {
			opacity: 0.22;
			fill: url(#SVGID_711_);
		}

		.st598 {
			opacity: 0.22;
			fill: url(#SVGID_712_);
		}

		.st599 {
			opacity: 0.22;
			fill: url(#SVGID_713_);
		}

		.st600 {
			opacity: 0.22;
			fill: url(#SVGID_714_);
		}

		.st601 {
			opacity: 0.22;
			fill: url(#SVGID_715_);
		}

		.st602 {
			fill: url(#SVGID_716_);
		}

		.st603 {
			opacity: 0.22;
			fill: url(#SVGID_717_);
		}

		.st604 {
			fill: url(#SVGID_718_);
		}

		.st605 {
			fill: url(#SVGID_719_);
		}

		.st606 {
			fill: url(#SVGID_720_);
		}

		.st607 {
			fill: url(#SVGID_721_);
		}

		.st608 {
			fill: url(#SVGID_722_);
		}

		.st609 {
			fill: url(#SVGID_723_);
		}

		.st610 {
			fill: url(#SVGID_724_);
		}

		.st611 {
			fill: url(#SVGID_725_);
		}

		.st612 {
			fill: url(#SVGID_726_);
		}

		.st613 {
			fill: url(#SVGID_729_);
		}

		.st614 {
			fill: url(#SVGID_730_);
		}

		.st615 {
			fill: url(#SVGID_731_);
		}

		.st616 {
			fill: url(#SVGID_732_);
		}

		.st617 {
			fill: url(#SVGID_733_);
		}

		.st618 {
			fill: url(#SVGID_734_);
		}

		.st619 {
			fill: url(#SVGID_735_);
		}

		.st620 {
			fill: url(#SVGID_736_);
		}

		.st621 {
			fill: url(#SVGID_737_);
		}

		.st622 {
			fill: url(#SVGID_738_);
		}

		.st623 {
			fill: url(#SVGID_739_);
		}
	</style>
	<path class="st23" d="M81.9,23.2c0,2-1.6,3.6-3.6,3.6H3.6c-2,0-3.6-1.6-3.6-3.6V3.6C0,1.6,1.6,0,3.6,0h74.7c2,0,3.6,1.6,3.6,3.6
	V23.2z" />
	<g id="PLAY_5_">
		<defs>
			<path id="SVGID_4_"
				d="M17.8,11.8l-3.7-2.1c0,0-6.7-3.9-7.1-4.1C6.5,5.3,6.1,5.5,6.1,5.9c0,0.8,0,8.3,0,8.3s0,8.1,0,8.5
			c0,0.4,0.3,0.5,0.6,0.3c0.3-0.2,7.3-4.2,7.3-4.2l3.7-2.1c0,0,3.1-1.8,3.6-2c0.4-0.2,0.4-0.6,0-0.8C21,13.7,17.8,11.8,17.8,11.8z" />
		</defs>
		<clipPath id="SVGID_5_">
			<use xlink:href="#SVGID_4_" style="overflow:visible;" />
		</clipPath>
		<linearGradient id="SVGID_6_" gradientUnits="userSpaceOnUse" x1="10.721" y1="5.1595" x2="10.721" y2="23.3081">
			<stop offset="0" style="stop-color:#257DB0" />
			<stop offset="0.208" style="stop-color:#3C90B3" />
			<stop offset="0.7416" style="stop-color:#73BDB9" />
			<stop offset="1" style="stop-color:#89CEBC" />
		</linearGradient>
		<polygon style="clip-path:url(#SVGID_5_);fill:url(#SVGID_6_);" points="6.1,5.2 6.1,14.2 6.1,23.3 15.3,14.2 	" />
		<linearGradient id="SVGID_7_" gradientUnits="userSpaceOnUse" x1="6.1452" y1="9.6637" x2="17.7548" y2="9.6637">
			<stop offset="0" style="stop-color:#51BFAC" />
			<stop offset="1" style="stop-color:#DEE899" />
		</linearGradient>
		<polygon style="clip-path:url(#SVGID_5_);fill:url(#SVGID_7_);"
			points="17.8,11.8 14.1,9.7 6.1,5.1 6.1,5.2 15.3,14.2 	" />
		<linearGradient id="SVGID_8_" gradientUnits="userSpaceOnUse" x1="11.9499" y1="14.234" x2="11.9499" y2="23.3741">
			<stop offset="0" style="stop-color:#EB403D" />
			<stop offset="0.1937" style="stop-color:#D64252" />
			<stop offset="0.7369" style="stop-color:#9F4887" />
			<stop offset="1" style="stop-color:#894A9C" />
		</linearGradient>
		<polygon style="clip-path:url(#SVGID_5_);fill:url(#SVGID_8_);"
			points="6.1,23.3 6.1,23.4 14.1,18.8 17.8,16.7 15.3,14.2 	" />
		<linearGradient id="SVGID_9_" gradientUnits="userSpaceOnUse" x1="18.6366" y1="11.7966" x2="18.6366" y2="16.671">
			<stop offset="0" style="stop-color:#F48779" />
			<stop offset="0.6121" style="stop-color:#FAB076" />
			<stop offset="1" style="stop-color:#FDC674" />
		</linearGradient>
		<polygon style="clip-path:url(#SVGID_5_);fill:url(#SVGID_9_);"
			points="17.8,11.8 15.3,14.2 17.8,16.7 22,14.2 	" />
	</g>
	<g>
		<path
			d="M63.8,17.8c-0.3,0-0.7-0.1-0.9-0.2c-0.3-0.1-0.5-0.3-0.7-0.6H62c0,0.3,0.1,0.6,0.1,0.9v2.2h-0.8v-7.6H62l0.1,0.7h0
		c0.2-0.3,0.4-0.5,0.7-0.6c0.3-0.1,0.6-0.2,0.9-0.2c0.7,0,1.2,0.2,1.6,0.7c0.4,0.5,0.6,1.1,0.6,2c0,0.9-0.2,1.5-0.6,2
		C65,17.5,64.4,17.8,63.8,17.8z M63.6,13c-0.5,0-0.9,0.1-1.2,0.4c-0.2,0.3-0.4,0.8-0.4,1.4V15c0,0.7,0.1,1.3,0.4,1.6
		c0.2,0.3,0.6,0.5,1.2,0.5c0.5,0,0.8-0.2,1.1-0.6c0.3-0.4,0.4-0.9,0.4-1.5c0-0.7-0.1-1.2-0.4-1.5C64.5,13.2,64.1,13,63.6,13z" />
		<path d="M67.8,17.7H67v-7.5h0.8V17.7z" />
		<path d="M72.4,17.7l-0.2-0.8h0c-0.3,0.3-0.5,0.6-0.8,0.7c-0.3,0.1-0.6,0.2-1,0.2c-0.5,0-0.9-0.1-1.2-0.4s-0.4-0.7-0.4-1.2
		c0-1.1,0.9-1.6,2.6-1.7l0.9,0v-0.3c0-0.4-0.1-0.7-0.3-0.9c-0.2-0.2-0.5-0.3-0.9-0.3c-0.4,0-0.9,0.1-1.5,0.4l-0.2-0.6
		c0.3-0.1,0.5-0.3,0.9-0.3c0.3-0.1,0.6-0.1,0.9-0.1c0.6,0,1.1,0.1,1.4,0.4c0.3,0.3,0.5,0.7,0.5,1.3v3.6H72.4z M70.6,17.1
		c0.5,0,0.9-0.1,1.2-0.4c0.3-0.3,0.4-0.7,0.4-1.1v-0.5l-0.8,0c-0.6,0-1.1,0.1-1.4,0.3c-0.3,0.2-0.4,0.4-0.4,0.8
		c0,0.3,0.1,0.5,0.3,0.7C70,17,70.3,17.1,70.6,17.1z" />
		<path d="M73.5,12.4h0.9l1.2,3c0.3,0.7,0.4,1.2,0.5,1.5h0c0-0.2,0.1-0.4,0.3-0.8c0.1-0.4,0.6-1.6,1.3-3.7h0.9l-2.3,6
		c-0.2,0.6-0.5,1-0.8,1.3c-0.3,0.2-0.7,0.4-1.1,0.4c-0.2,0-0.5,0-0.7-0.1v-0.6c0.2,0,0.4,0.1,0.6,0.1c0.5,0,0.9-0.3,1.2-0.9l0.3-0.8
		L73.5,12.4z" />
	</g>
	<g>
		<path d="M49,12.9c0.3,0.2,0.8,0.7,0.8,1.5c0,0.8-0.5,1.2-0.9,1.6c-0.1,0.1-0.3,0.3-0.3,0.5c0,0.2,0.2,0.4,0.3,0.5l0.4,0.3
		c0.5,0.4,0.9,0.8,0.9,1.5c0,1-1,2.1-2.9,2.1c-1.6,0-2.4-0.8-2.4-1.6c0-0.4,0.2-1,0.8-1.3c0.7-0.4,1.6-0.5,2.1-0.5
		c-0.2-0.2-0.3-0.4-0.3-0.7c0-0.2,0.1-0.3,0.1-0.4c-0.1,0-0.2,0-0.4,0c-1.2,0-1.8-0.9-1.8-1.7c0-0.5,0.2-1.1,0.7-1.5
		c0.6-0.5,1.4-0.6,2-0.6h2.3l-0.7,0.4H49z M48.2,17.8c-0.1,0-0.1,0-0.3,0c-0.1,0-0.7,0-1.2,0.2c-0.2,0.1-0.9,0.4-0.9,1.1
		c0,0.8,0.8,1.3,1.9,1.3c1.1,0,1.6-0.5,1.6-1.2C49.4,18.7,49,18.4,48.2,17.8z M48.5,15.7c0.3-0.3,0.3-0.6,0.3-0.8c0-0.8-0.5-2-1.4-2
		c-0.3,0-0.6,0.1-0.8,0.4c-0.2,0.2-0.2,0.5-0.2,0.8c0,0.7,0.4,2,1.4,2C48,16,48.3,15.9,48.5,15.7z" />
		<path d="M42,17.6c-1.8,0-2.7-1.4-2.7-2.6c0-1.4,1.2-2.7,2.9-2.7c1.6,0,2.6,1.3,2.6,2.6C44.8,16.2,43.8,17.6,42,17.6z M43.4,16.7
		c0.3-0.4,0.3-0.8,0.3-1.2c0-1-0.5-2.8-1.8-2.8c-0.4,0-0.7,0.1-1,0.4c-0.4,0.4-0.5,0.9-0.5,1.3c0,1.1,0.5,2.9,1.9,2.9
		C42.7,17.3,43.1,17.1,43.4,16.7z" />
		<path d="M36,17.6c-1.8,0-2.7-1.4-2.7-2.6c0-1.4,1.2-2.7,2.9-2.7c1.6,0,2.6,1.3,2.6,2.6C38.8,16.2,37.8,17.6,36,17.6z M37.4,16.7
		c0.3-0.4,0.3-0.8,0.3-1.2c0-1-0.5-2.8-1.8-2.8c-0.4,0-0.7,0.1-1,0.4c-0.4,0.4-0.5,0.9-0.5,1.3c0,1.1,0.5,2.9,1.9,2.9
		C36.7,17.3,37.2,17.1,37.4,16.7z" />
		<path d="M32.5,17.5l-1.6,0.4c-0.6,0.1-1.2,0.2-1.8,0.2c-3.1,0-4.2-2.2-4.2-4c0-2.1,1.7-4.1,4.5-4.1c0.6,0,1.2,0.1,1.7,0.2
		c0.8,0.2,1.2,0.5,1.5,0.7l-0.9,0.9l-0.4,0.1l0.3-0.4c-0.4-0.4-1.1-1-2.4-1c-1.8,0-3.1,1.3-3.1,3.3c0,2.1,1.5,4,3.9,4
		c0.7,0,1.1-0.1,1.4-0.3v-1.8l-1.7,0.1l0.9-0.5h2.3l-0.3,0.3c-0.1,0.1-0.1,0.1-0.1,0.2c0,0.1,0,0.4,0,0.5V17.5z" />
		<path d="M52.5,17.1c-0.4,0-0.4-0.1-0.4-0.5v-0.1v-6.1c0,0,0,0,0-0.1c0-0.4,0.2-0.5,0.5-0.7h-1.6L50.1,10h0.8v0l0,0v6.5v0.4
		c0,0.2,0,0.3-0.3,0.6h2l0.4-0.2C52.8,17.2,52.6,17.2,52.5,17.1z" />
		<path d="M57,17.2c-0.1,0.1-0.2,0.1-0.4,0.2c-0.4,0.2-0.7,0.2-1.1,0.2c-0.4,0-0.9,0-1.5-0.4c-0.8-0.6-1.1-1.5-1.1-2.3
		c0-1.7,1.4-2.5,2.5-2.5c0.4,0,0.8,0.1,1.1,0.3c0.5,0.4,0.7,0.8,0.8,1.1l-2.6,1l-0.8,0.1c0.3,1.4,1.2,2.2,2.3,2.2
		c0.6,0,1-0.2,1.3-0.4L57,17.2z M55.9,14c0.2-0.1,0.3-0.1,0.3-0.3c0-0.4-0.5-0.9-1.1-0.9c-0.4,0-1.3,0.3-1.3,1.5c0,0.2,0,0.4,0,0.6
		L55.9,14z" />
		<g>
			<path d="M58,12.4v0.7h-0.1L58,12.4h-0.3v-0.1h0.6v0.1H58z" />
			<path
				d="M59,13.1v-0.7h0l-0.2,0.7h-0.1l-0.2-0.7h0v0.7h-0.1v-0.8h0.1l0.2,0.6h0l0.2-0.6h0.1L59,13.1L59,13.1z" />
		</g>
	</g>
	<g>
		<path d="M27.1,7.7h-0.6c0-0.1-0.1-0.3-0.2-0.6h-0.8c-0.1,0.3-0.2,0.6-0.2,0.6h-0.5c0,0,0.1-0.4,0.4-1.1c0.3-0.7,0.4-1.1,0.4-1.1
		h0.7c0,0.1,0.1,0.4,0.4,1.1C26.9,7.3,27.1,7.6,27.1,7.7z M26.3,6.7c-0.2-0.6-0.3-0.9-0.3-1h0c0,0-0.1,0.4-0.3,1H26.3z" />
		<path d="M29.3,7.7h-0.4c0,0-0.2-0.3-0.5-0.7c-0.3-0.5-0.5-0.8-0.6-1h0c0,0.3,0,0.5,0,0.7c0,0.3,0,0.6,0,1h-0.4c0-0.4,0-0.7,0-1.2
		c0-0.4,0-0.8,0-1.1h0.5c0,0.1,0.1,0.3,0.4,0.7c0.3,0.5,0.5,0.8,0.5,0.9h0c0-0.3,0-0.5,0-0.7c0-0.3,0-0.6,0-1h0.4c0,0.3,0,0.6,0,1.1
		C29.3,7,29.3,7.3,29.3,7.7z" />
		<path d="M31.8,6.5c0,0.3-0.1,0.6-0.3,0.9c-0.2,0.2-0.5,0.4-0.9,0.4c-0.2,0-0.4,0-0.7,0c0-0.3,0-0.7,0-1.2c0-0.4,0-0.8,0-1.1h0.3
		c0,0,0.1,0,0.2,0c0.1,0,0.2,0,0.2,0c0.4,0,0.7,0.1,0.9,0.3C31.7,6,31.8,6.2,31.8,6.5z M31.3,6.6c0-0.2-0.1-0.4-0.2-0.6
		c-0.1-0.2-0.3-0.2-0.6-0.2c0,0-0.1,0-0.2,0c0,0.2,0,0.5,0,0.7c0,0.3,0,0.5,0,0.8c0.1,0,0.1,0,0.2,0c0.2,0,0.4-0.1,0.5-0.2
		C31.2,7,31.3,6.8,31.3,6.6z" />
		<path d="M34.1,7.7h-0.5c-0.1-0.4-0.2-0.7-0.3-0.8c-0.1-0.1-0.2-0.1-0.3-0.1c-0.1,0-0.1,0-0.2,0c0,0.3,0,0.6,0,0.9h-0.5
		c0-0.3,0-0.7,0-1.2c0-0.4,0-0.8,0-1.1h0.3c0,0,0.1,0,0.2,0c0.1,0,0.2,0,0.3,0c0.5,0,0.8,0.2,0.8,0.5c0,0.3-0.2,0.5-0.5,0.6v0
		c0.1,0,0.2,0.1,0.3,0.3C33.8,7,33.9,7.3,34.1,7.7z M33.4,6.1c0-0.2-0.1-0.3-0.4-0.3c-0.1,0-0.2,0-0.3,0c0,0.2,0,0.4,0,0.7
		c0.1,0,0.1,0,0.2,0C33.2,6.5,33.4,6.4,33.4,6.1z" />
		<path d="M36.5,6.5c0,0.4-0.1,0.6-0.3,0.9c-0.2,0.2-0.5,0.3-0.8,0.3c-0.3,0-0.6-0.1-0.8-0.3c-0.2-0.2-0.3-0.5-0.3-0.8
		c0-0.4,0.1-0.6,0.3-0.9c0.2-0.2,0.5-0.3,0.8-0.3c0.3,0,0.6,0.1,0.8,0.3C36.4,5.9,36.5,6.2,36.5,6.5z M36.1,6.6
		c0-0.2-0.1-0.4-0.2-0.6c-0.1-0.1-0.3-0.2-0.5-0.2c-0.2,0-0.3,0.1-0.4,0.2c-0.1,0.2-0.2,0.3-0.2,0.6c0,0.2,0.1,0.4,0.2,0.6
		c0.1,0.1,0.3,0.2,0.5,0.2c0.2,0,0.3-0.1,0.4-0.2C36,7,36.1,6.8,36.1,6.6z" />
		<path d="M37.5,7.7H37c0-0.4,0-0.7,0-1.2c0-0.4,0-0.8,0-1.1h0.5c0,0.3,0,0.6,0,1.1C37.5,7,37.5,7.3,37.5,7.7z" />
		<path d="M40,6.5c0,0.3-0.1,0.6-0.3,0.9c-0.2,0.2-0.5,0.4-0.9,0.4c-0.2,0-0.4,0-0.7,0c0-0.3,0-0.7,0-1.2c0-0.4,0-0.8,0-1.1h0.3
		c0,0,0.1,0,0.2,0c0.1,0,0.2,0,0.2,0c0.4,0,0.7,0.1,0.9,0.3C39.9,6,40,6.2,40,6.5z M39.5,6.6c0-0.2-0.1-0.4-0.2-0.6
		c-0.1-0.2-0.3-0.2-0.6-0.2c0,0-0.1,0-0.2,0c0,0.2,0,0.5,0,0.7c0,0.3,0,0.5,0,0.8c0.1,0,0.1,0,0.2,0c0.2,0,0.4-0.1,0.5-0.2
		C39.5,7,39.5,6.8,39.5,6.6z" />
		<path d="M43.3,7.7h-0.6c0-0.1-0.1-0.3-0.2-0.6h-0.8c-0.1,0.3-0.2,0.6-0.2,0.6h-0.5c0,0,0.1-0.4,0.4-1.1c0.3-0.7,0.4-1.1,0.4-1.1
		h0.7c0,0.1,0.1,0.4,0.4,1.1C43.2,7.3,43.3,7.6,43.3,7.7z M42.5,6.7c-0.2-0.6-0.3-0.9-0.3-1h0c0,0-0.1,0.4-0.3,1H42.5z" />
		<path d="M45.3,6c0,0.3-0.1,0.5-0.3,0.6c-0.2,0.1-0.5,0.2-0.7,0.2c-0.1,0-0.1,0-0.1,0c0,0.2,0,0.5,0,0.9h-0.5c0-0.3,0-0.7,0-1.2
		c0-0.4,0-0.8,0-1.1H44c0,0,0.1,0,0.2,0c0.1,0,0.2,0,0.3,0c0.2,0,0.4,0,0.6,0.1C45.2,5.7,45.3,5.8,45.3,6z M44.9,6.1
		c0-0.2-0.2-0.4-0.5-0.4c-0.1,0-0.2,0-0.3,0c0,0.2,0,0.5,0,0.7c0,0,0.1,0,0.1,0C44.7,6.5,44.9,6.4,44.9,6.1z" />
		<path d="M47.4,6c0,0.3-0.1,0.5-0.3,0.6c-0.2,0.1-0.5,0.2-0.7,0.2c-0.1,0-0.1,0-0.1,0c0,0.2,0,0.5,0,0.9h-0.5c0-0.3,0-0.7,0-1.2
		c0-0.4,0-0.8,0-1.1h0.3c0,0,0.1,0,0.2,0c0.1,0,0.2,0,0.3,0c0.2,0,0.4,0,0.6,0.1C47.3,5.7,47.4,5.8,47.4,6z M46.9,6.1
		c0-0.2-0.2-0.4-0.5-0.4c-0.1,0-0.2,0-0.3,0c0,0.2,0,0.5,0,0.7c0,0,0.1,0,0.1,0C46.7,6.5,46.9,6.4,46.9,6.1z" />
		<path d="M50.8,6.5c0,0.4-0.1,0.6-0.3,0.9c-0.2,0.2-0.5,0.3-0.8,0.3c-0.3,0-0.6-0.1-0.8-0.3c-0.2-0.2-0.3-0.5-0.3-0.8
		c0-0.4,0.1-0.6,0.3-0.9c0.2-0.2,0.5-0.3,0.8-0.3c0.3,0,0.6,0.1,0.8,0.3C50.7,5.9,50.8,6.2,50.8,6.5z M50.3,6.6
		c0-0.2-0.1-0.4-0.2-0.6c-0.1-0.1-0.3-0.2-0.5-0.2c-0.2,0-0.3,0.1-0.4,0.2C49.1,6.1,49,6.3,49,6.6c0,0.2,0.1,0.4,0.2,0.6
		c0.1,0.1,0.3,0.2,0.5,0.2c0.2,0,0.3-0.1,0.4-0.2C50.2,7,50.3,6.8,50.3,6.6z" />
		<path d="M53.1,7.7h-0.4c0,0-0.2-0.3-0.5-0.7c-0.3-0.5-0.5-0.8-0.6-1h0c0,0.3,0,0.5,0,0.7c0,0.3,0,0.6,0,1h-0.4c0-0.4,0-0.7,0-1.2
		c0-0.4,0-0.8,0-1.1h0.5c0,0.1,0.1,0.3,0.4,0.7c0.3,0.5,0.5,0.8,0.5,0.9h0c0-0.3,0-0.5,0-0.7c0-0.3,0-0.6,0-1h0.4c0,0.3,0,0.6,0,1.1
		C53.1,7,53.1,7.3,53.1,7.7z" />
	</g>
</svg>