<svg xmlns="http://www.w3.org/2000/svg" xmlns:xlink="http://www.w3.org/1999/xlink" viewBox="0 0 77.98 77.98"><defs><style>.cls-1{isolation:isolate;}.cls-2{fill:url(#linear-gradient);}.cls-3{fill:url(#linear-gradient-2);}.cls-4{fill:#00e5e5;mix-blend-mode:soft-light;}.cls-5{fill:#fff;}</style><linearGradient id="linear-gradient" x1="-4.14" y1="12.68" x2="79.09" y2="63.45" gradientUnits="userSpaceOnUse"><stop offset="0.04" stop-color="#252947"/><stop offset="0.32" stop-color="#00aee5"/><stop offset="0.56" stop-color="#00e5e5"/><stop offset="0.87" stop-color="#00e5b5"/><stop offset="1" stop-color="#00ae92"/></linearGradient><linearGradient id="linear-gradient-2" x1="81.22" y1="54.33" x2="-29.9" y2="13.96" xlink:href="#linear-gradient"/></defs><title>signo-peso</title><g class="cls-1"><g id="Capa_2" data-name="Capa 2"><g id="Capa_1-2" data-name="Capa 1"><circle class="cls-2" cx="38.99" cy="38.99" r="38.99"/><circle class="cls-3" cx="38.99" cy="38.99" r="33.09"/><path class="cls-4" d="M11.7,42A29.21,29.21,0,0,1,64.06,24.21,29.21,29.21,0,1,0,15.58,56.58,29.08,29.08,0,0,1,11.7,42Z"/><path class="cls-5" d="M39.47,18.83a2.58,2.58,0,0,1,2.59,2.6v.69a20.9,20.9,0,0,1,7.23,2.4,3.36,3.36,0,0,1-1.59,6.33A3.65,3.65,0,0,1,46,30.4a19.52,19.52,0,0,0-4.14-1.69v7.58C49.39,38.34,52.63,41.43,52.63,47s-4.29,9.17-10.57,9.87v2.65a2.6,2.6,0,0,1-5.19,0v-2.7A25,25,0,0,1,27,53.35a3.39,3.39,0,0,1-1.69-3A3.34,3.34,0,0,1,28.79,47a3.62,3.62,0,0,1,1.95.64,19,19,0,0,0,6.38,2.8V42.48C29.94,40.53,26.4,37.79,26.4,31.85c0-5.49,4.19-9.18,10.47-9.83v-.59A2.58,2.58,0,0,1,39.47,18.83ZM37.12,35V28.26c-2.39.35-3.44,1.55-3.44,3.14S34.38,34,37.12,35Zm4.69,8.73v6.94c2.34-.35,3.54-1.45,3.54-3.25C45.35,45.77,44.5,44.67,41.81,43.72Z"/></g></g></g></svg>